<svg id="svg" version="1.1" xmlns="http://www.w3.org/2000/svg" xmlns:xlink="http://www.w3.org/1999/xlink" width="400" height="400" viewBox="0, 0, 400,400"><g id="svgg"><path id="path0" d="M124.800 74.818 C 124.800 75.035,124.261 75.540,123.601 75.941 C 122.942 76.342,122.522 76.789,122.668 76.935 C 122.814 77.081,122.731 77.200,122.484 77.200 C 121.943 77.200,120.000 80.409,120.000 81.302 C 120.000 81.649,119.828 81.993,119.617 82.067 C 118.965 82.293,117.917 89.533,117.733 95.082 L 117.557 100.365 116.279 101.385 C 115.575 101.945,114.715 102.673,114.366 103.002 C 114.018 103.331,113.599 103.600,113.435 103.600 C 112.993 103.600,110.219 106.555,110.084 107.169 C 110.020 107.460,109.570 108.030,109.084 108.436 L 108.200 109.173 109.230 109.187 C 109.827 109.194,110.659 108.776,111.205 108.194 C 112.014 107.334,112.401 107.219,113.882 107.396 C 115.216 107.556,116.187 107.351,118.107 106.504 C 121.885 104.838,128.704 104.867,132.200 106.566 C 140.643 110.668,142.770 122.221,136.528 130.078 L 134.401 132.756 135.290 133.378 C 136.065 133.921,136.009 134.175,135.138 134.060 C 134.994 134.041,134.774 134.290,134.650 134.613 C 134.239 135.686,135.413 135.223,137.473 133.500 C 139.689 131.647,142.800 127.281,142.800 126.024 C 142.800 124.452,144.513 123.340,147.388 123.045 C 153.655 122.403,161.681 117.161,164.424 111.916 C 165.486 109.884,165.378 109.169,164.208 110.498 C 163.432 111.380,162.929 111.584,161.652 111.534 C 160.418 111.485,159.422 111.858,157.215 113.191 C 154.438 114.869,149.578 116.888,148.659 116.745 C 148.407 116.706,147.896 116.807,147.523 116.971 C 145.727 117.759,143.483 113.803,144.730 112.049 C 146.717 109.255,147.343 106.549,146.218 105.615 C 145.557 105.066,144.800 105.376,144.800 106.195 C 144.800 108.366,141.718 108.810,139.903 106.900 C 139.119 106.075,137.889 104.950,137.169 104.400 C 134.304 102.212,134.257 101.990,136.232 99.967 L 137.664 98.501 136.393 98.057 C 134.995 97.570,134.389 97.775,132.102 99.508 C 130.545 100.688,125.951 100.203,125.188 98.778 C 124.500 97.492,125.133 86.173,126.059 83.210 L 126.869 80.620 125.734 79.712 C 125.110 79.212,124.844 78.803,125.143 78.802 C 125.461 78.801,125.590 78.551,125.455 78.200 C 125.329 77.870,125.444 77.597,125.713 77.594 C 126.055 77.590,126.039 77.486,125.659 77.245 C 125.243 76.981,125.220 76.710,125.559 76.077 C 126.127 75.015,126.117 74.931,125.400 74.655 C 125.070 74.529,124.800 74.602,124.800 74.818 M82.295 115.899 C 81.907 115.988,81.693 116.227,81.819 116.430 C 81.944 116.634,81.857 116.822,81.624 116.850 C 80.775 116.950,80.571 117.045,78.885 118.128 C 77.811 118.817,77.275 119.410,77.449 119.714 C 77.603 119.981,77.588 120.074,77.417 119.919 C 76.537 119.127,72.514 125.353,71.798 128.614 C 71.655 129.266,71.357 130.176,71.136 130.634 C 70.310 132.353,71.600 142.560,72.795 143.755 C 73.018 143.978,73.200 144.408,73.200 144.710 C 73.200 146.417,79.138 154.763,82.797 158.200 C 85.479 160.720,85.689 160.897,88.206 162.783 C 91.137 164.979,94.629 166.698,99.600 168.392 C 101.690 169.104,103.580 169.799,103.800 169.937 C 104.433 170.334,104.968 170.261,105.400 169.718 C 105.621 169.440,107.543 169.023,109.700 168.786 C 117.150 167.965,122.645 164.268,124.787 158.634 C 125.380 157.073,125.004 157.386,123.743 159.500 C 122.730 161.199,122.595 161.299,122.470 160.445 C 122.393 159.920,122.516 159.375,122.744 159.235 C 123.007 159.072,123.022 158.765,122.785 158.389 C 122.580 158.065,122.409 157.957,122.406 158.149 C 122.403 158.341,122.138 158.280,121.818 158.015 C 121.147 157.458,120.400 157.780,120.400 158.624 C 120.400 158.941,120.239 159.200,120.041 159.200 C 119.844 159.200,119.139 159.677,118.474 160.260 C 116.102 162.342,110.890 163.101,106.706 161.975 C 104.949 161.502,104.897 161.358,106.100 160.309 C 106.663 159.818,106.775 159.569,106.400 159.643 C 105.654 159.792,103.200 158.520,103.200 157.986 C 103.200 157.346,99.881 153.962,98.859 153.560 C 98.342 153.356,98.003 152.966,98.106 152.694 C 98.317 152.135,96.226 149.907,95.846 150.287 C 95.711 150.423,95.600 150.329,95.600 150.079 C 95.600 149.829,95.344 149.723,95.031 149.843 C 94.340 150.109,92.800 149.342,92.800 148.732 C 92.800 148.490,92.305 147.833,91.700 147.272 C 91.095 146.712,90.600 146.299,90.600 146.355 C 90.600 146.410,90.086 146.261,89.458 146.022 C 88.504 145.659,88.357 145.425,88.566 144.594 C 88.709 144.022,88.642 143.600,88.408 143.600 C 88.183 143.600,88.000 143.330,88.000 143.000 C 88.000 142.665,87.643 142.400,87.191 142.400 C 86.747 142.400,85.622 141.912,84.691 141.317 C 83.761 140.721,82.945 140.201,82.877 140.161 C 82.810 140.121,82.702 139.596,82.638 138.994 C 82.543 138.100,81.200 136.607,81.200 137.394 C 81.200 137.523,80.840 137.435,80.400 137.200 C 79.960 136.965,79.600 136.429,79.600 136.010 C 79.600 135.590,79.441 135.149,79.246 135.029 C 78.702 134.692,78.290 131.215,78.731 130.675 C 78.944 130.414,79.398 129.251,79.740 128.092 C 80.345 126.040,82.601 122.400,83.268 122.400 C 83.901 122.400,83.596 121.243,82.819 120.698 C 81.863 120.029,81.952 118.359,83.004 117.196 C 83.810 116.305,83.445 115.636,82.295 115.899 " stroke="none" fill="#a8496e" fill-rule="evenodd"></path><path id="path1" d="M136.480 77.595 C 135.754 77.767,135.092 77.975,135.009 78.058 C 134.704 78.362,136.216 82.286,138.462 87.022 C 138.676 87.474,139.380 88.409,140.026 89.100 C 140.672 89.791,141.200 90.650,141.200 91.010 C 141.200 91.369,141.920 92.354,142.800 93.200 C 143.680 94.046,144.400 95.000,144.400 95.321 C 144.400 96.191,147.230 98.186,148.560 98.254 C 149.197 98.286,149.874 98.589,150.063 98.926 C 150.252 99.264,151.080 99.749,151.903 100.004 C 152.726 100.260,153.940 100.702,154.600 100.986 C 155.260 101.271,156.925 101.598,158.300 101.714 L 160.800 101.924 160.800 99.604 C 160.800 91.460,152.123 81.653,141.875 78.212 C 138.655 77.132,138.507 77.115,136.480 77.595 M197.400 88.243 C 193.660 88.541,190.240 88.952,189.800 89.155 C 189.360 89.357,187.380 89.749,185.400 90.024 C 183.420 90.300,181.620 90.654,181.400 90.812 C 181.180 90.970,180.100 91.227,179.000 91.384 C 177.900 91.541,176.460 91.898,175.800 92.179 C 175.140 92.459,173.530 93.003,172.223 93.389 C 168.605 94.455,167.196 96.087,167.679 98.650 C 167.881 99.722,168.147 102.445,168.269 104.700 C 168.391 106.955,168.533 108.800,168.584 108.800 C 169.036 108.800,171.606 107.298,172.400 106.571 C 174.743 104.423,177.722 103.295,181.865 102.988 C 184.029 102.828,186.179 102.554,186.643 102.380 C 190.183 101.050,209.324 100.579,219.020 101.583 C 227.019 102.411,242.120 107.029,248.000 110.443 C 250.694 112.008,251.628 112.577,253.200 113.616 C 254.190 114.270,255.315 114.915,255.700 115.049 C 256.085 115.184,256.400 115.452,256.400 115.647 C 256.400 115.841,256.639 116.000,256.930 116.000 C 257.222 116.000,257.874 116.440,258.380 116.979 C 258.886 117.517,259.607 118.012,259.982 118.079 C 260.727 118.211,264.199 121.145,268.353 125.154 C 269.809 126.559,271.391 127.965,271.869 128.280 C 272.347 128.594,273.427 129.857,274.269 131.087 C 275.111 132.316,276.250 133.818,276.800 134.423 C 278.349 136.129,279.703 138.000,280.522 139.568 C 280.934 140.356,281.482 141.180,281.740 141.400 C 281.998 141.620,282.428 142.250,282.695 142.800 C 282.962 143.350,283.732 144.700,284.407 145.800 C 285.081 146.900,286.085 148.790,286.638 150.000 C 287.191 151.210,288.081 153.100,288.617 154.200 C 289.653 156.328,292.146 164.371,293.514 170.000 C 295.256 177.169,295.665 197.049,294.158 201.319 C 293.851 202.189,293.600 203.427,293.600 204.070 C 293.600 204.713,293.350 205.726,293.045 206.320 C 292.740 206.914,292.196 208.557,291.836 209.971 C 291.475 211.385,291.025 212.735,290.835 212.971 C 290.645 213.207,290.364 214.335,290.210 215.478 C 290.038 216.763,289.576 217.969,289.001 218.638 C 288.067 219.725,286.000 223.634,286.000 224.313 C 286.000 225.407,284.419 226.122,284.073 225.185 L 283.730 224.259 283.422 225.229 C 283.252 225.763,283.133 226.335,283.157 226.500 C 283.181 226.665,283.008 226.800,282.773 226.800 C 282.520 226.800,282.456 227.146,282.616 227.650 C 282.797 228.222,282.741 228.411,282.443 228.226 C 282.167 228.056,282.000 228.307,282.000 228.893 C 282.000 229.422,281.374 230.497,280.570 231.350 C 279.765 232.203,279.235 233.114,279.357 233.433 C 279.487 233.770,279.327 234.000,278.964 234.000 C 278.628 234.000,278.464 234.180,278.600 234.400 C 278.736 234.620,278.660 234.800,278.431 234.800 C 278.202 234.800,277.906 235.237,277.772 235.771 C 277.637 236.305,277.300 236.830,277.021 236.937 C 276.742 237.044,276.400 237.699,276.262 238.392 C 276.123 239.086,275.846 239.552,275.647 239.429 C 275.291 239.209,274.611 240.308,274.736 240.900 C 274.771 241.065,274.533 241.200,274.208 241.200 C 273.882 241.200,273.502 241.650,273.364 242.200 C 273.226 242.750,272.979 243.200,272.816 243.200 C 272.652 243.200,271.699 244.242,270.699 245.516 C 269.068 247.592,267.452 249.260,263.300 253.154 C 262.585 253.824,262.000 254.281,262.000 254.168 C 262.000 254.056,261.578 254.377,261.061 254.882 C 260.545 255.387,259.447 256.340,258.621 257.000 C 257.795 257.660,256.912 258.392,256.660 258.628 C 253.625 261.453,239.057 269.416,234.800 270.577 C 234.250 270.728,233.440 271.011,233.000 271.207 C 224.464 275.015,201.805 276.708,190.478 274.386 C 185.184 273.300,179.462 271.769,177.732 270.975 C 177.034 270.655,175.909 270.282,175.232 270.146 C 174.554 270.011,174.000 269.743,174.000 269.550 C 174.000 269.358,173.792 269.200,173.539 269.200 C 172.818 269.200,166.390 266.140,163.000 264.183 C 159.232 262.007,157.970 261.516,156.687 261.725 C 153.644 262.220,149.620 263.178,148.938 263.570 C 148.532 263.803,147.030 264.274,145.600 264.617 C 136.200 266.871,133.475 267.584,132.759 267.980 C 132.406 268.174,131.281 268.459,130.259 268.612 L 128.400 268.891 128.400 267.669 C 128.400 266.997,128.554 266.352,128.743 266.235 C 128.931 266.119,129.318 264.893,129.603 263.512 C 129.887 262.130,130.253 260.820,130.417 260.600 C 130.580 260.380,130.933 259.131,131.201 257.824 C 131.469 256.517,131.831 255.167,132.004 254.824 C 132.178 254.481,132.806 252.310,133.400 250.000 C 133.994 247.690,134.669 245.444,134.900 245.010 C 135.802 243.311,135.774 238.967,134.851 237.672 C 134.383 237.015,134.000 236.294,134.000 236.072 C 134.000 235.849,133.857 235.607,133.682 235.533 C 133.351 235.395,130.283 230.041,129.135 227.600 C 127.416 223.943,126.799 222.517,126.786 222.174 C 126.779 221.968,126.425 221.080,126.000 220.200 C 125.575 219.320,125.221 218.357,125.214 218.060 C 125.206 217.764,124.946 216.954,124.635 216.260 C 124.324 215.567,123.862 214.010,123.606 212.800 C 123.351 211.590,122.980 210.240,122.781 209.800 C 120.524 204.799,120.527 177.119,122.786 172.200 C 124.212 169.095,123.914 163.151,122.451 165.518 C 122.303 165.756,121.556 166.376,120.791 166.894 C 119.479 167.782,118.294 168.377,113.985 170.310 C 112.263 171.082,108.800 174.105,108.800 174.835 C 108.800 175.022,108.395 175.946,107.900 176.888 C 106.882 178.825,106.731 186.940,107.608 192.600 C 107.846 194.140,108.295 197.020,108.604 199.000 C 108.914 200.980,109.268 203.320,109.392 204.200 C 109.634 205.919,110.005 207.432,112.093 215.211 C 113.335 219.836,114.153 222.168,117.212 229.800 C 119.958 236.650,121.067 244.768,119.668 247.781 C 119.459 248.232,119.075 249.385,118.814 250.345 C 118.520 251.430,118.067 252.162,117.617 252.280 C 117.132 252.406,116.959 252.723,117.094 253.239 C 117.210 253.680,116.589 255.422,115.642 257.316 C 111.458 265.684,112.719 272.832,119.349 278.326 C 120.201 279.032,121.371 279.723,121.949 279.863 C 122.527 280.003,123.450 280.429,124.000 280.810 C 127.042 282.919,141.314 281.456,143.600 278.801 C 143.710 278.674,145.818 278.058,148.285 277.434 C 154.339 275.901,158.187 276.287,166.400 279.248 C 176.827 283.007,178.999 283.669,186.800 285.460 C 193.079 286.901,194.238 287.113,198.600 287.612 C 206.130 288.473,224.569 287.542,227.258 286.165 C 227.840 285.867,229.100 285.509,230.058 285.370 C 231.016 285.230,232.926 284.781,234.302 284.371 C 235.678 283.960,237.421 283.583,238.176 283.532 C 238.931 283.482,239.470 283.313,239.374 283.158 C 239.278 283.002,240.100 282.751,241.201 282.600 C 242.302 282.448,243.337 282.103,243.501 281.832 C 243.666 281.561,244.700 281.100,245.800 280.807 C 248.240 280.159,250.000 279.313,250.000 278.790 C 250.000 278.575,250.675 278.394,251.500 278.386 C 252.325 278.378,253.450 278.114,254.000 277.800 C 254.550 277.486,255.415 277.222,255.922 277.214 C 256.429 277.206,257.419 276.661,258.122 276.002 C 259.296 274.901,260.006 274.594,260.960 274.773 C 261.158 274.810,261.878 274.311,262.560 273.664 C 264.004 272.295,265.186 271.843,267.387 271.818 C 268.626 271.804,269.073 271.601,269.427 270.893 C 270.035 269.678,270.514 269.228,270.153 270.212 C 269.869 270.986,269.880 270.987,270.723 270.247 C 271.195 269.832,271.467 269.292,271.326 269.047 C 271.186 268.801,271.216 268.730,271.392 268.889 C 271.810 269.267,274.873 266.841,274.578 266.365 C 274.454 266.164,274.567 266.000,274.829 266.000 C 275.476 266.000,278.852 262.585,278.526 262.260 C 278.384 262.117,278.536 262.000,278.864 262.000 C 279.519 262.000,287.123 253.795,286.800 253.437 C 286.690 253.315,287.008 252.930,287.507 252.580 C 288.005 252.231,288.310 251.778,288.183 251.573 C 288.056 251.368,288.105 251.200,288.291 251.200 C 288.621 251.200,291.600 247.428,291.600 247.011 C 291.600 246.896,292.253 245.894,293.050 244.784 C 294.760 242.403,301.200 229.718,301.200 228.730 C 301.200 228.354,301.368 227.944,301.573 227.817 C 301.778 227.690,302.167 226.599,302.436 225.393 C 302.706 224.187,303.050 223.200,303.200 223.200 C 303.492 223.200,304.610 218.933,304.535 218.104 C 304.510 217.832,304.630 217.695,304.800 217.800 C 304.971 217.906,305.238 217.139,305.395 216.096 C 305.551 215.053,305.852 213.876,306.064 213.480 C 306.276 213.084,306.717 210.924,307.044 208.680 C 307.370 206.436,307.824 203.340,308.052 201.800 C 308.574 198.271,308.264 177.475,307.665 175.800 C 307.428 175.140,306.977 172.980,306.663 171.000 C 306.348 169.020,305.817 166.410,305.483 165.200 C 304.226 160.649,303.445 158.194,303.191 158.000 C 303.047 157.890,302.707 156.902,302.435 155.805 C 302.163 154.708,301.798 153.628,301.623 153.405 C 301.447 153.182,301.074 152.280,300.792 151.400 C 299.871 148.521,293.935 137.138,292.406 135.317 C 292.183 135.051,292.000 134.727,292.000 134.596 C 292.000 134.273,288.014 128.881,285.054 125.200 C 280.485 119.519,268.282 108.000,266.831 108.000 C 266.594 108.000,266.400 107.849,266.400 107.665 C 266.400 107.051,259.102 102.488,254.000 99.913 C 252.570 99.191,251.340 98.465,251.267 98.300 C 251.193 98.135,250.966 98.000,250.762 98.000 C 250.558 98.000,249.628 97.651,248.696 97.225 C 247.763 96.799,245.830 95.978,244.400 95.400 C 242.970 94.823,241.260 94.110,240.600 93.817 C 239.940 93.524,238.770 93.155,238.000 92.996 C 237.230 92.837,236.420 92.568,236.200 92.398 C 235.980 92.228,234.720 91.874,233.400 91.610 C 232.080 91.347,230.708 90.979,230.351 90.794 C 229.994 90.609,228.194 90.249,226.351 89.994 C 224.508 89.740,222.695 89.372,222.323 89.176 C 221.799 88.902,204.395 87.433,204.237 87.650 C 204.216 87.678,201.140 87.944,197.400 88.243 M99.100 111.882 C 99.595 111.978,100.405 111.978,100.900 111.882 C 101.395 111.787,100.990 111.709,100.000 111.709 C 99.010 111.709,98.605 111.787,99.100 111.882 M111.838 119.100 C 111.495 120.215,111.889 123.082,112.666 125.122 C 113.631 127.656,116.970 130.909,119.018 131.309 L 120.235 131.547 119.279 128.474 C 118.753 126.783,118.090 124.860,117.806 124.200 C 117.522 123.540,117.163 122.581,117.008 122.070 C 116.853 121.558,116.629 121.237,116.510 121.356 C 116.391 121.475,115.945 121.129,115.518 120.586 C 115.091 120.044,114.479 119.600,114.158 119.600 C 113.837 119.600,113.471 119.330,113.345 119.000 C 113.030 118.181,112.102 118.243,111.838 119.100 M97.825 119.644 C 96.519 119.834,95.286 120.154,95.087 120.353 C 94.700 120.740,95.856 123.600,96.399 123.600 C 96.707 123.600,97.325 125.136,97.243 125.700 C 97.219 125.865,97.465 126.000,97.790 126.000 C 98.232 126.000,98.320 126.301,98.140 127.200 C 97.787 128.963,98.543 128.716,100.716 126.358 C 101.750 125.235,103.272 123.971,104.098 123.550 C 105.691 122.737,106.044 121.577,105.186 119.974 C 104.722 119.106,102.267 118.996,97.825 119.644 M105.275 129.584 C 103.719 131.689,104.383 133.291,107.676 135.378 C 108.313 135.782,108.663 136.292,108.534 136.627 C 108.185 137.538,109.427 137.719,110.978 136.983 C 113.015 136.017,113.038 135.803,111.329 133.689 C 109.736 131.717,108.981 130.615,108.527 129.600 C 107.829 128.039,106.423 128.032,105.275 129.584 M137.795 136.715 C 137.578 136.905,136.590 137.291,135.600 137.572 C 134.610 137.853,133.387 138.245,132.881 138.442 C 132.376 138.639,131.516 138.800,130.971 138.800 C 129.557 138.800,129.318 139.860,129.514 145.255 C 129.679 149.797,129.706 149.909,130.591 149.855 C 131.196 149.818,131.426 149.612,131.281 149.234 C 131.142 148.873,131.234 148.774,131.535 148.960 C 131.812 149.131,132.112 148.952,132.265 148.525 C 132.408 148.126,133.234 146.686,134.102 145.325 C 134.969 143.964,135.645 142.724,135.605 142.570 C 135.565 142.416,135.772 142.141,136.066 141.959 C 136.360 141.778,136.600 141.436,136.600 141.200 C 136.600 140.964,136.870 140.600,137.200 140.392 C 137.530 140.183,137.639 140.009,137.442 140.006 C 137.244 140.003,137.587 139.533,138.203 138.962 C 138.848 138.364,139.153 137.813,138.922 137.662 C 138.701 137.518,138.446 137.168,138.355 136.885 C 138.258 136.583,138.027 136.513,137.795 136.715 M165.646 143.232 C 162.471 144.503,155.924 153.238,158.290 153.049 C 158.672 153.018,159.661 154.435,160.949 156.858 C 163.709 162.049,167.808 167.984,171.512 172.151 C 173.043 173.874,174.576 176.991,174.195 177.607 C 174.060 177.826,174.231 178.114,174.575 178.246 C 175.407 178.565,175.408 181.531,174.575 183.513 C 172.947 187.388,174.782 196.712,177.960 200.709 C 180.350 203.715,184.156 207.800,186.885 210.286 C 188.488 211.747,189.931 213.157,190.091 213.419 C 190.250 213.681,190.925 214.121,191.591 214.396 C 192.256 214.672,192.800 215.052,192.800 215.242 C 192.800 215.752,198.541 219.464,201.360 220.777 C 205.773 222.833,206.577 223.077,209.876 223.365 C 213.595 223.689,215.335 223.352,219.714 221.455 C 223.108 219.986,232.520 222.625,234.818 225.691 C 235.043 225.991,240.172 228.565,243.000 229.798 C 243.880 230.181,245.167 230.744,245.860 231.047 C 246.554 231.351,247.544 231.602,248.060 231.605 C 249.644 231.615,250.800 232.064,250.800 232.670 C 250.800 232.988,250.983 233.134,251.207 232.996 C 251.430 232.858,251.507 232.573,251.377 232.362 C 251.247 232.152,251.351 232.030,251.607 232.090 C 251.864 232.151,252.283 231.844,252.537 231.409 C 252.792 230.974,253.211 230.434,253.468 230.209 C 256.190 227.831,259.070 216.263,257.499 214.021 C 256.871 213.124,252.764 210.800,251.808 210.800 C 251.473 210.800,251.200 210.620,251.200 210.400 C 251.200 210.180,251.031 210.000,250.824 210.000 C 250.617 210.000,248.952 209.301,247.124 208.446 C 242.192 206.139,240.073 205.200,239.800 205.200 C 239.666 205.200,238.801 204.860,237.878 204.446 C 236.955 204.031,235.347 203.307,234.303 202.837 C 233.017 202.258,232.055 202.071,231.315 202.257 C 230.296 202.513,226.000 206.574,226.000 207.281 C 226.000 207.456,225.685 207.947,225.300 208.371 C 224.542 209.207,224.390 209.401,222.620 211.800 C 220.335 214.897,219.487 215.600,218.035 215.600 C 216.679 215.600,207.223 211.280,206.083 210.140 C 205.786 209.843,205.377 209.600,205.173 209.600 C 204.176 209.600,191.953 199.753,189.533 197.000 C 188.284 195.578,183.945 189.800,183.172 188.530 C 182.661 187.689,182.129 186.910,181.991 186.800 C 180.813 185.861,179.868 183.114,180.417 182.227 C 181.597 180.324,182.638 178.988,184.200 177.375 C 189.309 172.097,191.303 168.453,189.645 167.428 C 189.450 167.307,189.164 166.532,189.009 165.704 C 188.854 164.877,188.485 163.750,188.190 163.200 C 187.391 161.710,185.600 157.689,185.600 157.385 C 185.600 157.135,185.279 156.378,183.570 152.600 C 183.173 151.720,182.727 150.505,182.580 149.900 C 182.433 149.295,182.181 148.800,182.020 148.800 C 181.859 148.800,181.511 148.080,181.247 147.200 C 180.984 146.320,180.595 145.600,180.384 145.600 C 180.173 145.600,180.000 145.343,180.000 145.029 C 180.000 143.057,169.401 141.730,165.646 143.232 M102.950 191.800 C 102.951 194.220,103.016 195.158,103.096 193.885 C 103.176 192.612,103.175 190.632,103.094 189.485 C 103.014 188.338,102.949 189.380,102.950 191.800 M286.059 217.830 C 285.801 218.396,285.685 219.014,285.801 219.202 C 285.918 219.391,285.830 219.658,285.607 219.796 C 285.070 220.128,285.083 221.200,285.624 221.200 C 285.857 221.200,285.944 221.032,285.817 220.828 C 285.691 220.623,285.767 220.344,285.987 220.208 C 286.208 220.072,286.366 219.564,286.340 219.080 C 286.313 218.596,286.425 217.885,286.589 217.500 C 287.060 216.389,286.579 216.688,286.059 217.830 M264.200 274.800 C 263.802 275.240,263.566 275.600,263.677 275.600 C 263.787 275.600,264.293 275.240,264.800 274.800 C 265.307 274.360,265.543 274.000,265.323 274.000 C 265.104 274.000,264.598 274.360,264.200 274.800 M248.771 283.835 C 248.453 284.218,248.551 284.286,249.183 284.120 C 250.194 283.856,250.588 283.333,249.776 283.333 C 249.452 283.333,249.000 283.559,248.771 283.835 M226.400 291.287 C 226.400 291.671,226.758 291.648,227.800 291.198 C 228.490 290.900,228.449 290.861,227.500 290.913 C 226.895 290.947,226.400 291.115,226.400 291.287 M201.300 293.476 C 201.685 293.576,202.315 293.576,202.700 293.476 C 203.085 293.375,202.770 293.293,202.000 293.293 C 201.230 293.293,200.915 293.375,201.300 293.476 M208.105 293.487 C 208.714 293.579,209.614 293.577,210.105 293.482 C 210.597 293.387,210.100 293.311,209.000 293.314 C 207.900 293.317,207.497 293.395,208.105 293.487 " stroke="none" fill="#f0eeef" fill-rule="evenodd"></path><path id="path2" d="M132.000 70.265 C 128.789 70.941,125.308 73.300,126.426 74.043 C 126.836 74.315,126.711 74.358,125.990 74.191 C 125.228 74.016,124.763 74.209,124.093 74.979 C 123.605 75.541,123.374 76.000,123.580 76.000 C 123.786 76.000,124.198 75.652,124.496 75.226 C 125.291 74.092,126.258 74.770,125.600 76.000 C 125.213 76.723,125.225 76.970,125.659 77.245 C 126.039 77.486,126.055 77.590,125.713 77.594 C 125.444 77.597,125.329 77.870,125.455 78.200 C 125.590 78.551,125.461 78.801,125.143 78.802 C 124.844 78.803,125.112 79.214,125.738 79.715 L 126.876 80.626 126.038 83.179 C 125.534 84.714,125.200 86.772,125.200 88.338 C 125.200 90.941,125.282 91.330,126.774 95.763 C 127.629 98.306,127.573 98.688,126.277 99.167 C 125.629 99.407,126.051 99.595,128.120 99.985 C 130.731 100.478,130.840 100.465,132.102 99.508 C 134.389 97.775,134.995 97.570,136.393 98.057 L 137.664 98.501 136.232 99.967 C 134.257 101.990,134.304 102.212,137.169 104.400 C 137.889 104.950,139.119 106.075,139.903 106.900 C 141.718 108.810,144.800 108.366,144.800 106.195 C 144.800 105.376,145.557 105.066,146.218 105.615 C 147.343 106.549,146.717 109.255,144.730 112.049 C 143.483 113.803,145.727 117.759,147.523 116.971 C 147.896 116.807,148.407 116.706,148.659 116.745 C 149.578 116.888,154.438 114.869,157.215 113.191 C 159.422 111.858,160.418 111.485,161.652 111.534 C 162.929 111.584,163.432 111.380,164.208 110.498 C 165.375 109.172,165.486 109.880,164.431 111.916 C 162.730 115.198,158.092 119.272,154.111 120.981 C 152.086 121.851,150.501 122.634,150.589 122.722 C 150.677 122.810,151.772 122.414,153.023 121.841 C 155.679 120.625,155.639 120.633,155.358 121.366 C 155.001 122.297,149.780 124.184,146.526 124.558 C 145.328 124.696,144.401 125.537,144.671 126.241 C 144.857 126.726,144.992 126.705,145.477 126.112 C 145.797 125.720,145.953 125.613,145.823 125.872 C 145.693 126.132,145.770 126.458,145.993 126.596 C 146.217 126.734,146.400 127.377,146.400 128.024 C 146.400 129.626,147.622 129.195,150.340 126.634 C 152.579 124.524,155.805 122.000,156.262 122.000 C 156.558 122.000,156.800 121.859,156.800 121.686 C 156.800 121.514,157.385 121.028,158.100 120.606 C 158.815 120.185,159.580 119.693,159.800 119.513 C 160.020 119.333,160.638 118.824,161.174 118.382 C 161.709 117.940,162.564 117.474,163.074 117.346 C 163.583 117.218,164.000 116.966,164.000 116.786 C 164.000 116.606,164.315 116.376,164.700 116.276 C 165.151 116.158,165.027 116.076,164.349 116.046 C 163.771 116.021,163.074 116.270,162.800 116.600 C 162.273 117.235,161.200 117.422,161.200 116.878 C 161.200 116.702,161.846 115.937,162.637 115.178 C 165.828 112.116,167.984 105.579,167.248 101.200 C 167.044 99.990,166.918 97.965,166.967 96.700 C 167.022 95.283,166.892 94.395,166.628 94.387 C 166.393 94.380,166.549 94.110,166.976 93.787 C 167.745 93.206,167.745 93.200,166.976 93.194 C 166.329 93.189,166.299 93.123,166.800 92.800 C 167.130 92.587,167.196 92.409,166.947 92.406 C 166.697 92.403,166.398 92.036,166.282 91.591 C 165.946 90.305,165.903 90.239,164.923 89.468 C 164.411 89.065,164.095 88.570,164.220 88.368 C 164.345 88.166,164.262 88.000,164.036 88.000 C 163.810 88.000,163.740 87.700,163.881 87.334 C 164.034 86.935,163.974 86.769,163.732 86.919 C 163.509 87.056,162.914 86.610,162.409 85.927 C 161.905 85.244,161.714 84.823,161.986 84.991 C 162.371 85.229,162.380 85.109,162.026 84.448 C 161.776 83.982,161.478 83.600,161.362 83.600 C 161.247 83.600,161.283 83.811,161.442 84.068 C 161.601 84.326,161.275 84.192,160.716 83.771 C 160.157 83.349,159.780 82.797,159.877 82.543 C 159.975 82.289,159.879 81.972,159.663 81.839 C 159.104 81.493,157.958 82.008,158.247 82.476 C 158.503 82.890,157.206 85.600,156.752 85.600 C 156.605 85.600,156.391 85.352,156.274 85.050 C 156.158 84.747,155.526 84.117,154.869 83.649 L 153.675 82.799 154.137 83.784 C 154.392 84.326,155.005 84.987,155.500 85.252 C 155.995 85.518,156.400 85.980,156.400 86.280 C 156.400 86.580,156.670 86.929,157.000 87.055 C 157.330 87.182,157.600 87.512,157.600 87.788 C 157.600 88.507,160.012 91.422,160.492 91.284 C 160.731 91.216,160.793 91.574,160.645 92.163 C 160.495 92.762,160.715 93.968,161.198 95.194 C 162.401 98.247,162.325 103.886,161.042 106.640 C 159.399 110.169,157.647 110.836,154.200 109.242 C 152.825 108.607,151.822 108.252,151.200 108.180 C 149.498 107.985,148.800 107.476,148.800 106.431 C 148.800 100.539,144.229 95.997,137.985 95.682 L 134.570 95.510 133.655 93.855 C 133.151 92.945,131.911 90.580,130.900 88.600 C 129.889 86.620,128.742 84.583,128.352 84.073 C 127.176 82.537,129.333 78.675,132.153 77.266 C 134.765 75.962,142.691 76.260,143.645 77.699 C 143.779 77.902,144.004 78.053,144.145 78.034 C 145.231 77.889,146.008 78.113,146.800 78.800 C 147.904 79.758,148.267 79.790,149.057 79.000 C 149.387 78.670,149.464 78.400,149.229 78.400 C 148.993 78.400,148.800 78.238,148.800 78.040 C 148.800 77.841,149.700 77.706,150.800 77.740 C 152.100 77.779,152.799 77.975,152.800 78.300 C 152.800 78.804,153.132 78.909,154.600 78.872 C 155.260 78.855,155.278 78.887,154.700 79.055 C 153.755 79.330,153.818 79.875,154.861 80.432 C 155.590 80.823,155.684 80.796,155.478 80.259 C 155.344 79.911,155.417 79.513,155.640 79.375 C 155.867 79.235,155.382 78.481,154.540 77.662 C 153.711 76.858,152.985 76.290,152.925 76.400 C 152.865 76.510,152.546 76.216,152.217 75.746 C 151.888 75.276,151.157 74.776,150.593 74.634 C 149.972 74.478,149.677 74.199,149.845 73.926 C 150.009 73.662,149.945 73.587,149.689 73.745 C 149.451 73.892,149.140 73.827,149.000 73.600 C 148.860 73.373,148.577 73.291,148.372 73.417 C 148.168 73.544,148.000 73.449,148.000 73.206 C 148.000 72.963,147.685 72.818,147.300 72.882 C 146.909 72.948,146.644 72.779,146.700 72.500 C 146.755 72.225,146.665 72.029,146.500 72.064 C 146.335 72.098,145.930 72.028,145.600 71.908 C 142.114 70.633,140.856 70.382,137.191 70.229 C 134.886 70.133,132.550 70.149,132.000 70.265 M157.078 79.856 C 156.779 80.155,157.106 80.800,157.557 80.800 C 157.727 80.800,157.867 80.530,157.867 80.200 C 157.867 79.573,157.514 79.419,157.078 79.856 M149.801 80.398 C 149.666 80.617,150.015 81.006,150.577 81.263 C 151.140 81.519,151.600 81.880,151.600 82.064 C 151.600 82.249,151.870 82.400,152.200 82.400 C 152.530 82.400,152.800 82.220,152.800 82.000 C 152.800 81.780,152.551 81.600,152.247 81.600 C 151.942 81.600,151.599 81.240,151.484 80.800 C 151.265 79.963,150.224 79.714,149.801 80.398 M160.300 86.461 C 160.406 86.867,160.832 87.200,161.247 87.200 C 161.705 87.200,162.000 87.482,162.000 87.920 C 162.000 88.316,162.207 88.847,162.461 89.101 C 163.187 89.827,161.038 90.695,160.212 90.010 C 159.875 89.731,159.600 89.259,159.600 88.963 C 159.600 88.667,159.062 88.026,158.404 87.539 C 157.310 86.731,157.260 86.596,157.826 85.971 C 158.584 85.134,160.028 85.420,160.300 86.461 M142.072 101.545 C 142.221 101.685,142.472 102.318,142.628 102.952 C 142.969 104.331,142.045 104.291,141.416 102.899 C 141.204 102.432,140.691 101.960,140.276 101.852 C 139.849 101.740,139.639 101.461,139.793 101.211 C 140.055 100.788,141.489 100.998,142.072 101.545 M121.000 105.468 C 120.560 105.588,119.168 106.118,117.907 106.645 C 116.216 107.353,115.159 107.550,113.882 107.396 C 112.401 107.219,112.014 107.334,111.205 108.194 C 110.686 108.747,109.900 109.200,109.459 109.200 C 109.019 109.200,108.170 109.785,107.573 110.500 L 106.488 111.800 101.544 111.869 C 96.183 111.943,90.028 112.612,89.458 113.182 C 89.263 113.377,88.873 113.449,88.592 113.341 C 88.311 113.234,87.962 113.338,87.817 113.573 C 87.672 113.808,87.295 114.000,86.979 114.000 C 85.740 114.000,83.189 115.395,83.404 115.955 C 83.522 116.263,83.315 116.852,82.943 117.263 C 81.945 118.366,81.885 120.044,82.819 120.698 C 83.608 121.251,83.898 122.400,83.249 122.400 C 83.056 122.400,82.257 123.345,81.475 124.500 C 80.027 126.638,79.305 129.786,80.261 129.796 C 80.515 129.798,82.795 131.915,85.327 134.500 C 87.860 137.085,90.128 139.200,90.366 139.200 C 90.605 139.200,90.800 139.349,90.800 139.530 C 90.800 139.712,92.015 140.836,93.500 142.029 C 94.985 143.222,97.204 145.188,98.432 146.399 C 99.660 147.609,101.542 149.230,102.614 150.000 C 103.687 150.770,105.553 152.345,106.761 153.500 C 107.969 154.655,109.090 155.600,109.252 155.600 C 109.414 155.600,109.674 156.005,109.830 156.500 C 109.987 156.995,110.425 157.619,110.805 157.886 C 112.148 158.831,112.979 161.181,112.178 161.767 C 111.552 162.225,111.548 162.294,112.135 162.520 C 113.120 162.898,117.060 161.501,118.449 160.282 C 119.127 159.687,119.844 159.200,120.041 159.200 C 120.239 159.200,120.400 158.941,120.400 158.624 C 120.400 157.780,121.147 157.458,121.818 158.015 C 122.138 158.280,122.403 158.341,122.406 158.149 C 122.409 157.957,122.580 158.065,122.785 158.389 C 123.022 158.765,123.007 159.072,122.744 159.235 C 122.516 159.375,122.393 159.920,122.470 160.445 C 122.595 161.299,122.730 161.199,123.743 159.500 C 125.004 157.386,125.380 157.073,124.787 158.634 C 122.756 163.977,117.047 167.993,110.400 168.753 C 107.415 169.094,107.411 169.096,109.627 169.148 C 113.695 169.243,117.965 167.545,121.656 164.365 C 123.777 162.538,123.926 162.474,124.140 163.293 C 124.377 164.200,124.892 164.019,125.045 162.975 C 125.093 162.644,125.498 161.673,125.945 160.816 C 128.648 155.630,129.116 154.511,128.798 153.996 C 128.577 153.639,128.410 153.740,128.217 154.347 C 127.947 155.197,127.200 155.544,127.200 154.820 C 127.200 154.610,127.479 153.395,127.820 152.120 C 128.223 150.609,128.445 147.989,128.454 144.609 C 128.471 138.783,128.650 138.183,130.497 137.781 C 135.656 136.656,141.616 131.274,143.308 126.211 C 143.986 124.183,144.746 123.603,146.762 123.572 C 147.773 123.556,148.960 123.373,149.400 123.165 C 149.998 122.881,149.796 122.837,148.600 122.988 C 147.720 123.100,146.513 123.193,145.918 123.196 C 144.648 123.201,142.800 124.877,142.800 126.024 C 142.800 127.281,139.689 131.647,137.473 133.500 C 135.413 135.223,134.239 135.686,134.650 134.613 C 134.774 134.290,134.994 134.041,135.138 134.060 C 136.009 134.175,136.065 133.921,135.290 133.378 L 134.401 132.756 136.528 130.078 C 142.768 122.223,140.640 110.656,132.205 106.573 C 129.821 105.418,123.478 104.793,121.000 105.468 M223.400 106.830 C 222.840 107.050,222.780 107.166,223.200 107.218 C 223.900 107.305,224.517 107.440,224.800 107.570 C 225.475 107.878,226.430 107.876,226.622 107.564 C 226.746 107.364,226.790 107.200,226.721 107.200 C 226.652 107.200,226.056 107.046,225.397 106.858 C 224.739 106.670,223.840 106.657,223.400 106.830 M227.200 108.034 C 227.200 108.371,227.385 108.439,228.646 108.567 C 228.891 108.592,229.421 108.879,229.823 109.206 C 230.251 109.554,230.429 109.593,230.253 109.300 C 229.870 108.662,230.488 108.648,231.120 109.280 C 231.384 109.544,231.600 109.606,231.600 109.418 C 231.600 109.230,231.929 109.373,232.330 109.737 C 232.732 110.100,233.542 110.437,234.130 110.486 C 234.719 110.535,235.200 110.726,235.200 110.911 C 235.200 111.096,235.380 111.136,235.600 111.000 C 235.820 110.864,236.000 110.943,236.000 111.176 C 236.000 111.409,236.135 111.579,236.300 111.553 C 236.465 111.527,236.735 111.549,236.900 111.603 C 237.517 111.803,238.020 111.902,238.700 111.956 C 239.247 112.000,239.282 112.087,238.860 112.355 C 238.494 112.586,238.914 112.786,240.160 112.973 C 241.172 113.125,242.000 113.379,242.000 113.537 C 242.000 113.695,242.495 114.042,243.100 114.307 C 245.510 115.364,247.596 116.670,247.318 116.948 C 247.157 117.110,247.305 117.135,247.648 117.003 C 247.991 116.871,248.503 117.042,248.785 117.382 C 249.067 117.722,249.487 118.000,249.717 118.000 C 249.948 118.000,250.450 118.284,250.833 118.630 C 251.216 118.977,251.861 119.316,252.265 119.383 C 252.669 119.451,252.951 119.721,252.890 119.983 C 252.830 120.245,252.937 120.362,253.130 120.244 C 253.322 120.125,253.866 120.388,254.339 120.829 C 254.813 121.270,255.200 121.528,255.200 121.402 C 255.200 121.276,255.722 121.707,256.360 122.359 C 256.998 123.012,257.594 123.472,257.685 123.382 C 257.775 123.292,258.702 124.024,259.745 125.009 C 260.787 125.994,261.811 126.800,262.020 126.800 C 262.229 126.800,262.400 126.951,262.400 127.136 C 262.400 127.320,262.860 127.681,263.423 127.937 C 263.985 128.194,264.327 128.595,264.182 128.829 C 264.038 129.062,264.292 129.351,264.747 129.470 C 265.201 129.589,265.682 130.027,265.814 130.443 C 265.946 130.859,266.214 131.200,266.409 131.200 C 266.814 131.200,268.985 133.266,268.994 133.661 C 268.997 133.804,269.585 134.564,270.300 135.350 C 271.015 136.136,271.600 136.963,271.600 137.189 C 271.600 137.415,271.870 137.600,272.200 137.600 C 272.530 137.600,272.800 137.870,272.800 138.200 C 272.800 138.530,272.944 138.800,273.119 138.800 C 273.295 138.800,274.120 139.870,274.953 141.178 C 275.787 142.486,276.619 143.611,276.804 143.678 C 276.989 143.745,277.199 144.063,277.270 144.384 C 277.400 144.970,277.781 145.559,278.681 146.566 C 278.945 146.862,279.079 147.188,278.977 147.290 C 278.875 147.391,279.247 147.965,279.803 148.565 C 280.358 149.165,280.709 149.824,280.581 150.030 C 280.454 150.237,280.630 150.513,280.972 150.645 C 281.315 150.776,281.510 151.022,281.406 151.190 C 281.155 151.597,282.733 153.400,283.056 153.077 C 283.376 152.757,282.531 150.705,281.384 149.014 C 280.897 148.296,280.281 147.053,280.017 146.251 C 279.752 145.450,279.190 144.609,278.768 144.383 C 278.346 144.157,278.000 143.708,278.000 143.386 C 278.000 143.064,277.820 142.800,277.600 142.800 C 277.380 142.800,277.200 142.633,277.200 142.428 C 277.200 141.852,274.177 137.483,273.238 136.704 C 272.777 136.321,272.400 135.736,272.400 135.404 C 272.400 135.072,272.142 134.800,271.827 134.800 C 271.512 134.800,271.142 134.448,271.006 134.018 C 270.869 133.587,270.227 132.789,269.579 132.243 C 268.930 131.698,268.400 131.142,268.400 131.009 C 268.400 130.721,267.621 129.754,266.847 129.081 C 266.543 128.816,265.604 127.953,264.761 127.161 C 263.918 126.370,262.593 125.290,261.817 124.761 C 261.041 124.233,260.404 123.683,260.403 123.539 C 260.401 123.395,259.365 122.596,258.100 121.762 C 256.835 120.928,255.565 119.921,255.277 119.523 C 254.990 119.125,254.487 118.800,254.161 118.800 C 253.834 118.800,253.180 118.440,252.708 118.000 C 252.236 117.560,251.523 117.200,251.125 117.200 C 250.726 117.200,250.400 117.029,250.400 116.821 C 250.400 116.612,249.140 115.858,247.600 115.144 C 246.060 114.431,244.800 113.682,244.800 113.481 C 244.800 113.279,244.530 113.218,244.200 113.345 C 243.870 113.471,243.600 113.409,243.600 113.206 C 243.600 112.529,236.752 109.782,234.000 109.354 C 233.010 109.201,231.840 108.844,231.400 108.563 C 230.419 107.935,227.200 107.530,227.200 108.034 M122.380 111.427 C 123.474 111.977,124.468 112.587,124.589 112.783 C 124.710 112.978,125.302 113.247,125.905 113.380 C 126.986 113.618,127.400 114.152,129.451 117.958 C 129.972 118.925,130.590 119.946,130.823 120.228 C 131.057 120.510,131.323 121.495,131.415 122.418 C 131.507 123.341,131.789 124.346,132.043 124.652 C 132.307 124.970,132.407 125.799,132.278 126.596 C 132.154 127.360,132.198 128.075,132.376 128.185 C 132.798 128.446,132.802 130.424,132.383 131.221 C 131.660 132.595,127.623 134.092,124.631 134.095 C 113.101 134.108,106.110 120.427,113.338 112.000 C 115.918 108.993,117.352 108.902,122.380 111.427 M106.261 119.016 C 107.583 120.823,106.820 123.688,104.757 124.665 C 97.318 128.189,97.608 139.678,105.199 142.200 C 109.790 143.724,112.872 142.912,116.280 139.279 L 118.360 137.061 119.915 137.527 C 124.154 138.797,124.411 149.223,120.334 154.522 C 119.715 155.326,118.400 155.078,118.400 154.157 C 118.400 153.527,116.999 152.000,116.420 152.000 C 116.211 152.000,115.266 151.505,114.320 150.900 C 111.603 149.163,111.110 148.852,109.222 147.692 C 108.244 147.092,106.984 146.126,106.422 145.546 C 105.860 144.966,104.998 144.370,104.507 144.221 C 104.016 144.072,102.854 143.242,101.925 142.375 C 100.996 141.509,100.109 140.800,99.955 140.800 C 99.665 140.800,95.600 136.991,95.600 136.719 C 95.600 136.635,94.074 134.954,92.209 132.983 C 86.736 127.199,86.400 126.806,86.400 126.189 C 86.400 125.865,86.062 125.600,85.649 125.600 C 82.854 125.600,85.060 122.184,88.973 120.453 C 94.089 118.190,104.994 117.283,106.261 119.016 M107.993 127.196 C 108.400 127.414,109.543 128.809,110.533 130.296 C 111.522 131.783,112.797 133.404,113.366 133.897 C 115.949 136.139,111.607 139.984,107.920 138.720 C 102.398 136.827,101.381 130.069,106.200 127.286 C 107.189 126.715,107.102 126.719,107.993 127.196 M282.898 153.484 C 282.621 153.585,282.528 153.878,282.691 154.134 C 282.854 154.390,282.991 154.735,282.994 154.900 C 283.007 155.536,283.807 155.306,283.938 154.629 C 284.101 153.780,283.599 153.227,282.898 153.484 M283.822 155.564 C 283.523 156.048,283.983 157.200,284.476 157.200 C 284.691 157.200,284.792 157.423,284.701 157.696 C 284.610 157.969,284.786 158.443,285.091 158.748 C 285.396 159.053,285.563 159.520,285.461 159.785 C 285.359 160.050,285.537 160.267,285.855 160.267 C 286.211 160.267,286.344 160.030,286.200 159.655 C 286.071 159.319,285.682 158.179,285.337 157.122 C 284.728 155.260,284.289 154.809,283.822 155.564 M154.984 157.227 C 154.839 157.461,154.813 157.746,154.926 157.859 C 155.039 157.973,154.872 158.726,154.553 159.533 C 154.077 160.740,154.073 160.876,154.531 160.300 C 155.270 159.371,155.600 159.417,155.600 160.447 C 155.600 160.913,156.140 161.909,156.800 162.661 C 157.460 163.413,158.000 164.272,158.000 164.571 C 158.000 164.870,158.252 165.211,158.560 165.329 C 159.228 165.586,163.809 172.499,165.353 175.581 C 166.405 177.681,167.920 189.901,167.322 191.460 C 167.223 191.717,167.401 192.439,167.717 193.064 C 168.034 193.689,168.515 195.145,168.786 196.300 C 169.058 197.455,169.420 198.400,169.591 198.400 C 169.763 198.400,170.121 198.927,170.388 199.571 C 170.655 200.215,171.138 200.844,171.462 200.968 C 171.786 201.093,171.930 201.389,171.783 201.628 C 171.636 201.866,172.117 202.812,172.852 203.730 C 173.587 204.649,174.461 205.742,174.794 206.160 C 175.518 207.068,176.162 207.710,178.349 209.705 C 179.257 210.533,180.000 211.362,180.000 211.548 C 180.000 212.116,188.721 219.772,190.765 221.000 C 191.132 221.220,192.349 222.075,193.470 222.900 C 194.590 223.725,195.753 224.400,196.054 224.401 C 196.354 224.401,197.230 224.946,198.000 225.611 C 199.092 226.554,202.094 227.847,204.000 228.196 C 204.110 228.216,205.370 228.623,206.800 229.100 C 209.832 230.112,213.151 230.298,216.800 229.660 C 224.239 228.360,230.382 229.669,237.691 234.109 C 238.732 234.741,239.779 235.137,240.018 234.989 C 240.527 234.674,241.635 236.021,241.305 236.554 C 241.180 236.755,241.584 236.820,242.215 236.699 C 243.528 236.448,244.496 236.721,244.170 237.249 C 244.046 237.449,244.599 237.302,245.398 236.920 C 247.374 235.978,245.941 234.811,243.260 235.179 C 242.963 235.220,242.829 235.077,242.962 234.861 C 243.096 234.645,242.349 234.148,241.303 233.757 C 240.256 233.366,238.702 232.614,237.850 232.086 C 236.997 231.559,234.207 230.230,231.650 229.134 L 227.000 227.141 222.478 227.140 C 219.583 227.139,217.751 227.309,217.386 227.612 C 215.239 229.394,202.491 226.898,199.018 224.015 C 198.718 223.766,197.511 223.068,196.336 222.463 C 193.820 221.168,192.247 220.187,190.600 218.885 C 189.940 218.364,188.896 217.546,188.279 217.068 C 187.663 216.591,186.599 215.615,185.915 214.900 C 185.231 214.185,184.430 213.600,184.136 213.600 C 183.841 213.600,183.600 213.326,183.600 212.990 C 183.600 212.655,183.195 212.216,182.700 212.016 C 181.149 211.389,173.612 202.510,173.604 201.300 C 173.602 201.025,173.424 200.800,173.208 200.800 C 171.565 200.800,169.258 192.815,168.989 186.200 C 168.648 177.817,168.497 177.088,166.367 173.545 C 165.285 171.745,164.400 170.121,164.400 169.936 C 164.400 169.751,164.220 169.600,164.000 169.600 C 163.780 169.600,163.600 169.399,163.600 169.153 C 163.600 168.767,162.717 167.579,160.661 165.200 C 159.478 163.832,156.400 158.154,156.400 157.340 C 156.400 156.699,155.361 156.616,154.984 157.227 M286.162 161.138 C 286.319 161.392,286.262 161.600,286.036 161.600 C 285.810 161.600,285.729 161.870,285.855 162.200 C 285.982 162.530,286.246 162.800,286.443 162.800 C 286.965 162.800,286.880 161.296,286.338 160.962 C 286.052 160.785,285.985 160.852,286.162 161.138 M105.467 169.467 C 105.006 169.927,105.175 170.400,105.800 170.400 C 106.652 170.400,106.543 171.104,105.600 171.693 C 105.160 171.968,104.800 172.419,104.800 172.696 C 104.800 172.973,104.637 173.200,104.438 173.200 C 104.238 173.200,104.279 173.631,104.527 174.157 L 104.979 175.115 105.557 173.920 C 105.876 173.263,106.641 172.221,107.258 171.604 L 108.380 170.482 107.311 170.213 C 106.471 170.003,106.366 169.866,106.821 169.579 C 107.280 169.288,107.227 169.211,106.567 169.206 C 106.108 169.203,105.613 169.320,105.467 169.467 M290.514 191.400 C 290.517 192.500,290.595 192.903,290.687 192.295 C 290.779 191.686,290.777 190.786,290.682 190.295 C 290.587 189.803,290.511 190.300,290.514 191.400 M104.589 207.740 C 104.158 208.222,104.262 209.600,104.729 209.600 C 104.878 209.600,105.027 210.074,105.061 210.653 C 105.094 211.231,105.344 211.842,105.615 212.009 C 105.923 212.200,106.010 212.706,105.847 213.357 C 105.680 214.021,105.749 214.400,106.038 214.400 C 106.312 214.400,106.422 214.866,106.318 215.579 C 106.223 216.227,106.265 216.683,106.412 216.593 C 106.559 216.502,106.694 216.959,106.713 217.608 C 106.731 218.258,106.889 219.017,107.063 219.295 C 107.237 219.573,107.325 220.135,107.257 220.544 C 107.190 220.953,107.306 221.181,107.516 221.052 C 107.725 220.922,107.996 221.559,108.118 222.466 C 108.240 223.373,108.488 224.224,108.670 224.358 C 109.013 224.610,109.290 225.440,109.318 226.300 C 109.326 226.575,109.483 226.800,109.667 226.800 C 109.850 226.800,110.000 227.160,110.000 227.600 C 110.000 228.040,110.172 228.400,110.382 228.400 C 110.695 228.400,111.308 230.434,111.382 231.715 C 111.392 231.888,111.640 232.178,111.934 232.359 C 112.228 232.541,112.455 232.849,112.439 233.045 C 112.379 233.769,112.867 234.800,113.270 234.800 C 113.498 234.800,113.576 235.085,113.443 235.433 C 113.309 235.780,113.492 236.455,113.849 236.933 C 114.272 237.498,114.419 237.565,114.272 237.126 C 114.147 236.755,114.226 236.391,114.446 236.318 C 114.689 236.237,114.611 235.727,114.249 235.029 C 113.919 234.394,113.441 233.003,113.185 231.938 C 112.930 230.873,112.579 230.090,112.405 230.197 C 112.232 230.304,111.998 229.899,111.887 229.296 C 111.776 228.693,111.206 226.940,110.620 225.400 C 110.035 223.860,109.368 221.970,109.137 221.200 C 108.906 220.430,108.575 219.620,108.402 219.400 C 108.228 219.180,107.868 217.920,107.600 216.600 C 107.332 215.280,106.970 214.020,106.795 213.800 C 106.620 213.580,106.349 212.365,106.192 211.100 C 106.036 209.835,105.761 208.800,105.582 208.800 C 105.402 208.800,105.198 208.458,105.128 208.040 C 105.034 207.485,104.889 207.404,104.589 207.740 M108.082 274.336 C 107.853 274.994,107.766 275.633,107.890 275.756 C 108.013 275.880,107.863 276.300,107.557 276.690 C 107.057 277.327,107.068 277.347,107.664 276.881 C 108.400 276.306,108.937 276.778,108.587 277.691 C 108.395 278.189,109.319 279.258,113.014 282.816 C 113.462 283.247,114.025 283.600,114.265 283.600 C 114.505 283.600,114.944 283.891,115.239 284.247 C 115.534 284.602,116.735 285.348,117.909 285.904 C 119.277 286.551,119.969 287.104,119.838 287.444 C 119.692 287.826,120.017 287.960,120.999 287.923 C 121.750 287.895,122.687 288.126,123.082 288.436 C 123.737 288.950,123.752 288.938,123.251 288.300 C 122.779 287.699,122.789 287.600,123.318 287.600 C 123.656 287.600,123.997 287.791,124.075 288.025 C 124.175 288.325,124.545 288.325,125.334 288.025 C 125.949 287.791,127.025 287.594,127.726 287.587 C 128.953 287.575,128.971 287.552,128.200 286.959 C 127.672 286.553,126.932 286.416,126.025 286.558 C 125.269 286.677,124.459 286.637,124.225 286.470 C 123.991 286.303,123.098 285.928,122.241 285.636 C 117.708 284.093,109.924 277.520,109.398 274.792 C 109.100 273.241,108.533 273.044,108.082 274.336 M159.288 282.065 C 159.374 282.321,159.790 282.581,160.214 282.643 C 160.639 282.706,161.049 282.946,161.126 283.178 C 161.203 283.410,161.612 283.600,162.033 283.600 C 162.455 283.600,162.800 283.780,162.800 284.000 C 162.800 284.220,162.935 284.362,163.100 284.315 C 163.265 284.268,163.781 284.442,164.247 284.701 C 164.713 284.960,165.197 285.070,165.322 284.945 C 165.446 284.820,165.960 285.007,166.463 285.359 C 166.966 285.712,167.698 286.000,168.089 286.000 C 168.480 286.000,168.800 286.199,168.800 286.443 C 168.800 286.686,169.070 286.782,169.400 286.655 C 169.730 286.529,170.000 286.610,170.000 286.836 C 170.000 287.062,170.168 287.144,170.372 287.017 C 170.577 286.891,170.863 286.978,171.008 287.213 C 171.152 287.447,171.660 287.585,172.135 287.519 C 172.660 287.447,172.961 287.597,172.900 287.900 C 172.845 288.175,172.944 288.400,173.120 288.400 C 173.296 288.400,173.682 288.175,173.979 287.900 C 174.410 287.500,174.461 287.500,174.235 287.900 C 173.976 288.359,174.460 288.592,175.342 288.433 C 175.530 288.400,175.934 288.579,176.240 288.833 C 176.546 289.087,177.157 289.200,177.598 289.085 C 178.040 288.969,178.322 289.002,178.226 289.158 C 178.057 289.431,180.562 290.285,182.200 290.512 C 182.640 290.573,183.225 290.764,183.500 290.935 C 183.775 291.107,184.180 291.136,184.400 291.000 C 184.620 290.864,184.800 290.941,184.800 291.172 C 184.800 291.402,185.205 291.582,185.700 291.570 C 186.195 291.559,187.410 291.669,188.400 291.814 C 189.390 291.960,190.552 292.070,190.982 292.058 C 191.411 292.047,192.031 292.254,192.358 292.519 C 192.827 292.897,192.890 292.893,192.653 292.500 C 192.286 291.888,192.438 291.880,193.874 292.436 C 195.521 293.073,196.454 293.211,196.187 292.779 C 195.922 292.351,196.525 292.258,196.932 292.665 C 197.499 293.233,199.522 293.181,199.748 292.592 C 199.929 292.118,199.579 292.000,197.993 292.000 C 196.903 292.000,195.244 291.827,194.306 291.615 C 193.368 291.404,190.440 290.839,187.800 290.361 C 185.160 289.882,182.820 289.373,182.600 289.229 C 181.801 288.706,179.196 287.955,178.874 288.154 C 178.692 288.267,178.106 288.132,177.571 287.855 C 177.037 287.578,175.610 287.030,174.400 286.637 C 173.190 286.244,171.560 285.595,170.778 285.194 C 169.995 284.793,168.688 284.340,167.873 284.187 C 167.058 284.034,166.293 283.750,166.172 283.555 C 166.051 283.360,165.416 283.200,164.760 283.200 C 164.105 283.200,162.862 282.840,162.000 282.400 C 160.250 281.507,159.053 281.359,159.288 282.065 " stroke="none" fill="#d086a7" fill-rule="evenodd"></path><path id="path3" d="M125.058 92.600 C 124.404 95.680,124.895 99.200,125.978 99.200 C 127.424 99.200,127.608 98.315,126.730 95.583 C 125.308 91.161,125.348 91.233,125.058 92.600 M78.875 130.376 C 78.355 131.550,78.605 134.632,79.253 135.032 C 79.444 135.151,79.600 135.590,79.600 136.010 C 79.600 136.429,79.960 136.965,80.400 137.200 C 80.840 137.435,81.200 137.523,81.200 137.394 C 81.200 136.607,82.543 138.100,82.638 138.994 C 82.702 139.596,82.810 140.121,82.877 140.161 C 82.945 140.201,83.761 140.721,84.691 141.317 C 85.622 141.912,86.747 142.400,87.191 142.400 C 87.643 142.400,88.000 142.665,88.000 143.000 C 88.000 143.330,88.183 143.600,88.408 143.600 C 88.642 143.600,88.709 144.022,88.566 144.594 C 88.330 145.534,88.880 146.040,90.490 146.362 C 91.028 146.470,92.800 148.288,92.800 148.732 C 92.800 149.342,94.340 150.109,95.031 149.843 C 95.344 149.723,95.600 149.829,95.600 150.079 C 95.600 150.329,95.711 150.423,95.846 150.287 C 96.226 149.907,98.317 152.135,98.106 152.694 C 98.003 152.966,98.342 153.356,98.859 153.560 C 99.881 153.962,103.200 157.346,103.200 157.986 C 103.200 158.520,105.654 159.792,106.400 159.643 C 106.775 159.569,106.663 159.818,106.100 160.309 C 104.899 161.356,104.948 161.493,106.700 161.979 C 111.823 163.402,114.644 160.589,110.805 157.886 C 110.425 157.619,109.987 156.995,109.830 156.500 C 109.674 156.005,109.414 155.600,109.252 155.600 C 109.090 155.600,107.969 154.655,106.761 153.500 C 105.553 152.345,103.687 150.770,102.614 150.000 C 101.542 149.230,99.660 147.609,98.432 146.399 C 97.204 145.188,94.985 143.222,93.500 142.029 C 92.015 140.836,90.800 139.712,90.800 139.530 C 90.800 139.349,90.604 139.200,90.364 139.200 C 90.124 139.200,87.784 137.008,85.164 134.330 C 82.544 131.651,80.400 129.603,80.400 129.779 C 80.400 129.954,80.169 129.906,79.887 129.672 C 79.500 129.351,79.252 129.523,78.875 130.376 M154.800 160.024 C 154.800 160.257,154.657 160.359,154.483 160.251 C 153.732 159.787,153.514 173.115,154.258 174.053 C 154.496 174.354,154.812 175.391,154.959 176.359 C 155.322 178.732,159.172 187.772,160.513 189.400 C 160.694 189.620,161.148 190.363,161.521 191.051 C 162.820 193.445,164.871 196.400,165.234 196.400 C 165.435 196.400,165.600 196.660,165.600 196.977 C 165.600 197.295,165.959 197.806,166.397 198.113 C 166.836 198.420,167.076 198.791,166.931 198.936 C 166.786 199.081,166.883 199.200,167.147 199.200 C 167.411 199.200,167.999 199.830,168.453 200.599 C 168.907 201.369,169.441 201.898,169.639 201.776 C 169.838 201.653,170.000 201.742,170.000 201.973 C 170.000 202.355,170.775 203.398,172.400 205.204 C 172.730 205.570,173.208 206.214,173.463 206.635 C 173.717 207.056,174.144 207.348,174.412 207.284 C 174.694 207.216,174.804 207.413,174.673 207.754 C 174.429 208.391,175.306 209.360,175.737 208.930 C 175.882 208.785,176.000 208.875,176.000 209.129 C 176.000 209.794,177.282 211.196,177.671 210.956 C 177.852 210.844,178.000 210.939,178.000 211.167 C 178.000 211.678,182.767 216.400,183.283 216.400 C 183.489 216.400,183.927 216.670,184.257 217.000 C 184.587 217.330,184.734 217.600,184.584 217.600 C 184.086 217.600,187.391 220.381,187.900 220.391 C 188.175 220.396,188.400 220.574,188.400 220.787 C 188.400 221.001,188.670 221.071,189.000 220.945 C 189.377 220.800,189.600 220.949,189.600 221.343 C 189.600 221.689,189.982 222.176,190.448 222.426 C 191.135 222.793,191.236 222.777,190.977 222.340 C 190.802 222.043,191.410 222.565,192.329 223.500 C 193.247 224.435,194.179 225.222,194.400 225.250 C 194.620 225.278,195.025 225.331,195.300 225.368 C 195.575 225.406,195.755 225.653,195.700 225.918 C 195.645 226.183,195.848 226.400,196.151 226.400 C 196.454 226.400,196.924 226.668,197.196 226.996 C 197.468 227.323,197.831 227.504,198.003 227.398 C 198.175 227.292,198.419 227.474,198.546 227.802 C 198.672 228.131,199.023 228.400,199.326 228.400 C 199.629 228.400,200.293 228.760,200.800 229.200 C 201.307 229.640,201.965 230.000,202.261 230.000 C 202.558 230.000,202.800 230.180,202.800 230.400 C 202.800 230.620,202.935 230.759,203.100 230.709 C 203.486 230.592,208.957 233.304,209.133 233.700 C 209.207 233.865,209.568 234.000,209.937 234.000 C 210.305 234.000,211.452 234.450,212.485 235.000 C 213.518 235.550,214.627 236.000,214.949 236.000 C 215.272 236.000,216.045 236.250,216.668 236.556 C 218.038 237.228,220.378 238.043,221.200 238.134 C 221.530 238.170,221.890 238.314,222.000 238.453 C 222.190 238.693,225.003 239.242,226.500 239.330 C 226.885 239.353,227.200 239.498,227.200 239.653 C 227.200 239.808,229.720 239.953,232.800 239.976 C 236.371 240.002,238.400 239.869,238.400 239.608 C 238.400 239.384,238.895 239.196,239.500 239.191 C 240.105 239.186,241.410 238.798,242.400 238.327 C 243.390 237.857,244.380 237.503,244.600 237.542 C 244.820 237.580,244.663 237.348,244.251 237.026 C 243.768 236.648,243.070 236.526,242.289 236.682 C 241.592 236.822,241.172 236.769,241.302 236.558 C 241.634 236.022,240.530 234.673,240.018 234.989 C 239.779 235.137,238.732 234.741,237.691 234.109 C 230.382 229.669,224.239 228.360,216.800 229.660 C 213.151 230.298,209.832 230.112,206.800 229.100 C 205.370 228.623,204.110 228.216,204.000 228.196 C 202.094 227.847,199.092 226.554,198.000 225.611 C 197.230 224.946,196.354 224.401,196.054 224.401 C 195.753 224.400,194.590 223.725,193.470 222.900 C 192.349 222.075,191.132 221.220,190.765 221.000 C 188.721 219.772,180.000 212.116,180.000 211.548 C 180.000 211.362,179.257 210.533,178.349 209.705 C 176.162 207.710,175.518 207.068,174.794 206.160 C 174.461 205.742,173.587 204.649,172.852 203.730 C 172.117 202.812,171.636 201.866,171.783 201.628 C 171.930 201.389,171.786 201.093,171.462 200.968 C 171.138 200.844,170.655 200.215,170.388 199.571 C 170.121 198.927,169.763 198.400,169.591 198.400 C 169.420 198.400,169.058 197.455,168.786 196.300 C 168.515 195.145,168.034 193.689,167.717 193.064 C 167.401 192.439,167.223 191.717,167.322 191.460 C 167.920 189.901,166.405 177.681,165.353 175.581 C 163.809 172.499,159.228 165.586,158.560 165.329 C 158.252 165.211,158.000 164.870,158.000 164.571 C 158.000 164.272,157.460 163.413,156.800 162.661 C 156.140 161.909,155.600 160.913,155.600 160.447 C 155.600 159.981,155.420 159.600,155.200 159.600 C 154.980 159.600,154.800 159.791,154.800 160.024 M104.800 171.200 C 104.800 172.107,105.215 172.225,105.920 171.520 C 106.625 170.815,106.507 170.400,105.600 170.400 C 105.067 170.400,104.800 170.667,104.800 171.200 M107.454 276.203 C 107.291 276.628,107.375 276.758,107.705 276.591 C 107.977 276.453,107.902 276.586,107.538 276.887 C 107.174 277.187,106.765 278.132,106.629 278.986 C 106.493 279.840,106.223 280.733,106.029 280.970 C 105.671 281.405,104.629 286.157,104.784 286.645 C 104.830 286.791,104.702 287.021,104.499 287.155 C 104.057 287.448,103.200 290.746,103.200 292.154 C 103.200 293.504,103.644 293.690,105.674 293.192 C 106.623 292.959,107.620 292.721,107.888 292.663 C 108.157 292.604,108.502 292.431,108.655 292.278 C 108.808 292.125,109.346 292.000,109.851 292.000 C 112.349 292.000,123.264 288.847,122.919 288.225 C 122.789 287.991,122.925 288.025,123.221 288.300 C 123.946 288.973,124.426 288.933,124.153 288.222 C 123.984 287.781,123.421 287.691,121.770 287.844 C 120.018 288.006,119.649 287.937,119.825 287.479 C 119.973 287.095,119.359 286.590,117.909 285.904 C 116.735 285.348,115.534 284.602,115.239 284.247 C 114.944 283.891,114.505 283.600,114.265 283.600 C 114.025 283.600,113.462 283.247,113.014 282.816 C 109.330 279.269,108.396 278.188,108.585 277.694 C 108.703 277.387,108.552 276.782,108.250 276.349 C 107.770 275.665,107.668 275.646,107.454 276.203 " stroke="none" fill="#858385" fill-rule="evenodd"></path><path id="path4" d="M132.095 77.305 C 129.254 78.825,127.191 82.556,128.352 84.073 C 128.742 84.583,129.889 86.620,130.900 88.600 C 131.911 90.580,133.151 92.945,133.655 93.855 L 134.570 95.510 137.985 95.682 C 144.229 95.997,148.800 100.539,148.800 106.431 C 148.800 107.476,149.498 107.985,151.200 108.180 C 151.822 108.252,152.825 108.607,154.200 109.242 C 157.647 110.836,159.399 110.169,161.042 106.640 C 162.325 103.886,162.401 98.247,161.198 95.194 C 160.715 93.968,160.495 92.762,160.645 92.163 C 160.793 91.574,160.731 91.216,160.492 91.284 C 160.012 91.422,157.600 88.507,157.600 87.788 C 157.600 87.512,157.330 87.182,157.000 87.055 C 156.670 86.929,156.400 86.580,156.400 86.280 C 156.400 85.980,155.995 85.518,155.500 85.252 C 155.005 84.987,154.392 84.326,154.137 83.784 L 153.675 82.799 154.869 83.649 C 155.526 84.117,156.158 84.747,156.274 85.050 C 156.391 85.352,156.605 85.600,156.752 85.600 C 157.276 85.600,158.485 82.861,158.179 82.366 C 157.968 82.024,158.060 81.937,158.468 82.094 C 159.350 82.432,159.209 81.328,158.265 80.502 C 157.819 80.112,157.607 80.045,157.787 80.352 C 158.010 80.732,157.938 80.844,157.556 80.710 C 157.250 80.604,157.047 80.244,157.105 79.911 C 157.163 79.578,156.400 78.641,155.409 77.829 C 154.418 77.016,153.710 76.622,153.837 76.952 C 153.964 77.282,154.521 77.850,155.076 78.213 C 155.768 78.666,155.956 79.004,155.674 79.286 C 155.448 79.512,155.366 79.966,155.492 80.295 C 155.683 80.793,155.577 80.816,154.861 80.432 C 153.818 79.875,153.755 79.330,154.700 79.055 C 155.278 78.887,155.260 78.855,154.600 78.872 C 153.132 78.909,152.800 78.804,152.800 78.300 C 152.799 77.975,152.100 77.779,150.800 77.740 C 149.700 77.706,148.800 77.841,148.800 78.040 C 148.800 78.238,148.993 78.400,149.229 78.400 C 149.464 78.400,149.387 78.670,149.057 79.000 C 148.267 79.790,147.904 79.758,146.800 78.800 C 146.008 78.113,145.231 77.889,144.145 78.034 C 144.004 78.053,143.779 77.902,143.645 77.699 C 142.671 76.230,134.619 75.955,132.095 77.305 M141.875 78.212 C 152.123 81.653,160.800 91.460,160.800 99.604 L 160.800 101.924 158.300 101.714 C 156.925 101.598,155.260 101.271,154.600 100.986 C 153.940 100.702,152.726 100.260,151.903 100.004 C 151.080 99.749,150.252 99.264,150.063 98.926 C 149.874 98.589,149.197 98.286,148.560 98.254 C 147.230 98.186,144.400 96.191,144.400 95.321 C 144.400 95.000,143.680 94.046,142.800 93.200 C 141.920 92.354,141.200 91.369,141.200 91.010 C 141.200 90.650,140.672 89.791,140.026 89.100 C 139.380 88.409,138.676 87.474,138.462 87.022 C 136.216 82.286,134.704 78.362,135.009 78.058 C 135.183 77.883,137.549 77.301,138.329 77.241 C 138.621 77.218,140.216 77.656,141.875 78.212 M151.484 80.800 C 151.599 81.240,151.942 81.600,152.247 81.600 C 152.551 81.600,152.800 81.780,152.800 82.000 C 152.800 82.220,152.530 82.400,152.200 82.400 C 151.870 82.400,151.600 82.249,151.600 82.064 C 151.600 81.880,151.140 81.519,150.577 81.263 C 150.015 81.006,149.666 80.617,149.801 80.398 C 150.224 79.714,151.265 79.963,151.484 80.800 M159.869 82.693 C 159.766 82.862,160.132 83.337,160.682 83.749 C 161.672 84.492,161.677 84.491,161.238 83.671 C 160.711 82.687,160.127 82.269,159.869 82.693 M162.471 86.011 C 162.955 86.665,163.403 87.200,163.467 87.200 C 163.820 87.200,162.603 85.210,162.142 85.033 C 161.819 84.909,161.954 85.312,162.471 86.011 M157.826 85.971 C 157.260 86.596,157.310 86.731,158.404 87.539 C 159.062 88.026,159.600 88.667,159.600 88.963 C 159.600 89.259,159.875 89.731,160.212 90.010 C 161.038 90.695,163.187 89.827,162.461 89.101 C 162.207 88.847,162.000 88.316,162.000 87.920 C 162.000 87.482,161.705 87.200,161.247 87.200 C 160.832 87.200,160.406 86.867,160.300 86.461 C 160.028 85.420,158.584 85.134,157.826 85.971 M166.600 94.000 C 166.464 94.220,166.511 94.400,166.705 94.400 C 166.898 94.400,167.016 95.435,166.967 96.700 C 166.918 97.965,167.044 99.990,167.248 101.200 C 167.984 105.579,165.828 112.116,162.637 115.178 C 161.846 115.937,161.200 116.702,161.200 116.878 C 161.200 117.422,162.273 117.235,162.800 116.600 C 163.074 116.270,163.805 116.000,164.425 116.000 C 165.045 116.000,166.508 115.497,167.676 114.883 C 174.585 111.248,175.600 110.754,175.600 111.026 C 175.600 111.176,175.831 111.107,176.112 110.873 C 176.394 110.639,177.069 110.365,177.612 110.264 C 181.049 109.628,181.574 109.481,181.404 109.206 C 181.300 109.038,181.616 108.884,182.107 108.865 C 182.598 108.846,183.360 108.747,183.800 108.646 C 184.240 108.544,185.016 108.447,185.524 108.431 C 186.032 108.414,186.337 108.222,186.203 108.005 C 186.063 107.778,186.223 107.711,186.579 107.847 C 186.921 107.978,187.515 107.949,187.900 107.782 C 188.857 107.368,189.299 107.284,193.200 106.780 C 199.014 106.030,200.049 105.956,205.476 105.900 C 208.378 105.871,210.681 105.731,210.594 105.590 C 210.507 105.449,210.689 105.333,211.000 105.333 C 211.311 105.333,211.456 105.509,211.323 105.725 C 211.178 105.959,211.506 106.035,212.141 105.913 C 212.723 105.802,213.200 105.845,213.200 106.008 C 213.200 106.171,213.875 106.268,214.700 106.223 C 215.525 106.178,216.380 106.244,216.600 106.371 C 216.820 106.497,217.540 106.619,218.200 106.643 C 218.860 106.667,219.895 106.821,220.500 106.986 C 221.409 107.235,221.600 107.159,221.600 106.554 C 221.600 105.912,221.676 105.931,222.223 106.711 C 222.565 107.200,223.060 107.597,223.323 107.594 C 223.649 107.590,223.632 107.481,223.266 107.249 C 222.851 106.986,222.896 106.870,223.466 106.725 C 224.495 106.463,226.879 107.148,226.587 107.622 C 226.454 107.837,226.177 107.909,225.972 107.783 C 225.768 107.656,225.600 107.743,225.600 107.976 C 225.600 108.209,225.960 108.400,226.400 108.400 C 226.840 108.400,227.200 108.235,227.200 108.034 C 227.200 107.596,230.259 107.896,231.262 108.433 C 231.665 108.649,231.872 109.068,231.742 109.406 C 231.617 109.733,231.724 110.000,231.981 110.000 C 232.237 110.000,232.318 109.792,232.161 109.537 C 231.709 108.805,235.338 109.444,238.375 110.631 C 242.342 112.180,243.600 112.800,243.600 113.206 C 243.600 113.409,243.870 113.471,244.200 113.345 C 244.530 113.218,244.800 113.279,244.800 113.481 C 244.800 113.682,246.060 114.431,247.600 115.144 C 249.140 115.858,250.400 116.612,250.400 116.821 C 250.400 117.029,250.726 117.200,251.125 117.200 C 251.523 117.200,252.236 117.560,252.708 118.000 C 253.180 118.440,253.834 118.800,254.161 118.800 C 254.487 118.800,254.990 119.125,255.277 119.523 C 255.565 119.921,256.835 120.928,258.100 121.762 C 259.365 122.596,260.401 123.395,260.403 123.539 C 260.404 123.683,261.041 124.233,261.817 124.761 C 262.593 125.290,263.918 126.370,264.761 127.161 C 265.604 127.953,266.543 128.816,266.847 129.081 C 267.621 129.754,268.400 130.721,268.400 131.009 C 268.400 131.142,268.930 131.698,269.579 132.243 C 270.227 132.789,270.869 133.587,271.006 134.018 C 271.142 134.448,271.512 134.800,271.827 134.800 C 272.142 134.800,272.400 135.072,272.400 135.404 C 272.400 135.736,272.777 136.321,273.238 136.704 C 274.177 137.483,277.200 141.852,277.200 142.428 C 277.200 142.633,277.380 142.800,277.600 142.800 C 277.820 142.800,278.000 143.064,278.000 143.386 C 278.000 143.708,278.346 144.157,278.768 144.383 C 279.190 144.609,279.752 145.450,280.017 146.251 C 280.281 147.053,280.897 148.296,281.384 149.014 C 282.564 150.753,283.373 152.760,283.032 153.101 C 282.881 153.253,282.573 153.112,282.348 152.788 C 281.991 152.274,281.960 152.276,282.104 152.800 C 282.195 153.130,282.613 153.403,283.034 153.406 C 283.595 153.410,283.797 153.692,283.788 154.460 C 283.781 155.074,283.961 155.436,284.224 155.335 C 284.480 155.237,285.039 156.235,285.526 157.659 C 286.397 160.212,286.413 161.344,285.551 159.452 C 285.287 158.873,284.914 158.400,284.722 158.400 C 284.529 158.400,284.597 158.805,284.872 159.300 C 285.369 160.195,285.454 160.435,285.550 161.200 C 285.578 161.420,285.791 161.600,286.024 161.600 C 286.257 161.600,286.319 161.392,286.162 161.138 C 285.985 160.852,286.052 160.785,286.338 160.962 C 286.892 161.304,286.959 162.800,286.421 162.800 C 286.191 162.800,286.206 163.271,286.460 164.000 C 286.690 164.660,287.086 165.203,287.339 165.206 C 287.653 165.210,287.639 165.314,287.297 165.532 C 286.910 165.777,287.013 166.285,287.742 167.726 C 288.290 168.808,288.503 169.603,288.246 169.606 C 288.001 169.609,288.070 169.787,288.400 170.000 C 288.730 170.213,288.894 170.391,288.763 170.394 C 288.633 170.397,288.677 171.255,288.862 172.300 C 290.410 181.089,290.456 181.577,290.518 189.800 C 290.576 197.713,290.131 204.130,289.310 207.200 C 289.163 207.750,289.009 208.380,288.967 208.600 C 288.926 208.820,288.858 209.090,288.816 209.200 C 288.775 209.310,288.665 209.850,288.573 210.400 C 288.480 210.950,288.284 211.850,288.137 212.400 C 287.989 212.950,287.898 213.535,287.934 213.700 C 287.970 213.865,287.850 214.000,287.667 214.000 C 287.483 214.000,287.317 214.225,287.296 214.500 C 287.222 215.513,286.752 217.343,286.395 218.009 C 286.193 218.386,286.134 218.801,286.263 218.930 C 286.393 219.060,286.410 219.398,286.300 219.683 C 286.191 219.967,286.094 220.360,286.085 220.555 C 286.076 220.751,285.898 221.021,285.690 221.155 C 285.097 221.539,284.000 223.876,284.000 224.757 C 284.000 226.689,285.414 225.775,286.410 223.200 C 287.005 221.660,288.642 218.901,289.424 218.119 C 289.698 217.845,290.050 216.671,290.206 215.510 C 290.362 214.350,290.645 213.207,290.835 212.971 C 291.025 212.735,291.475 211.385,291.836 209.971 C 292.196 208.557,292.740 206.914,293.045 206.320 C 293.350 205.726,293.600 204.713,293.600 204.070 C 293.600 203.427,293.851 202.189,294.158 201.319 C 295.665 197.049,295.256 177.169,293.514 170.000 C 292.146 164.371,289.653 156.328,288.617 154.200 C 288.081 153.100,287.191 151.210,286.638 150.000 C 286.085 148.790,285.081 146.900,284.407 145.800 C 283.732 144.700,282.962 143.350,282.695 142.800 C 282.428 142.250,281.998 141.620,281.740 141.400 C 281.482 141.180,280.934 140.356,280.522 139.568 C 279.703 138.000,278.349 136.129,276.800 134.423 C 276.250 133.818,275.111 132.316,274.269 131.087 C 273.427 129.857,272.347 128.594,271.869 128.280 C 271.391 127.965,269.809 126.559,268.353 125.154 C 264.199 121.145,260.727 118.211,259.982 118.079 C 259.607 118.012,258.886 117.517,258.380 116.979 C 257.874 116.440,257.222 116.000,256.930 116.000 C 256.639 116.000,256.400 115.841,256.400 115.647 C 256.400 115.452,256.085 115.184,255.700 115.049 C 255.315 114.915,254.190 114.270,253.200 113.616 C 251.628 112.577,250.694 112.008,248.000 110.443 C 242.120 107.029,227.019 102.411,219.020 101.583 C 209.324 100.579,190.183 101.050,186.643 102.380 C 186.179 102.554,184.029 102.828,181.865 102.988 C 177.722 103.295,174.743 104.423,172.400 106.571 C 171.606 107.298,169.036 108.800,168.584 108.800 C 168.533 108.800,168.391 106.955,168.269 104.700 C 168.147 102.445,167.884 99.740,167.685 98.690 C 167.379 97.074,167.437 96.649,168.062 95.929 C 168.853 95.017,169.061 94.191,168.397 94.602 C 168.176 94.739,167.886 94.569,167.754 94.225 C 167.481 93.513,166.964 93.412,166.600 94.000 M139.793 101.211 C 139.639 101.461,139.849 101.740,140.276 101.852 C 140.691 101.960,141.204 102.432,141.416 102.899 C 142.045 104.291,142.969 104.331,142.628 102.952 C 142.223 101.313,140.416 100.203,139.793 101.211 M115.570 109.959 C 107.256 115.129,109.680 129.472,119.501 133.221 C 125.274 135.425,132.721 133.322,132.705 129.493 C 132.702 128.884,132.554 128.295,132.376 128.185 C 132.198 128.075,132.154 127.360,132.278 126.596 C 132.407 125.799,132.307 124.970,132.043 124.652 C 131.789 124.346,131.507 123.341,131.415 122.418 C 131.323 121.495,131.057 120.510,130.823 120.228 C 130.590 119.946,129.972 118.925,129.451 117.958 C 127.400 114.152,126.986 113.618,125.905 113.380 C 125.302 113.247,124.710 112.978,124.589 112.783 C 123.599 111.180,116.952 109.099,115.570 109.959 M98.400 118.256 C 95.599 118.497,90.939 119.584,88.973 120.453 C 85.060 122.184,82.854 125.600,85.649 125.600 C 86.062 125.600,86.400 125.865,86.400 126.189 C 86.400 126.806,86.736 127.199,92.209 132.983 C 94.074 134.954,95.600 136.635,95.600 136.719 C 95.600 136.991,99.665 140.800,99.955 140.800 C 100.109 140.800,100.996 141.509,101.925 142.375 C 102.854 143.242,104.016 144.072,104.507 144.221 C 104.998 144.370,105.860 144.966,106.422 145.546 C 106.984 146.126,108.244 147.092,109.222 147.692 C 111.110 148.852,111.603 149.163,114.320 150.900 C 115.266 151.505,116.211 152.000,116.420 152.000 C 116.999 152.000,118.400 153.527,118.400 154.157 C 118.400 155.078,119.715 155.326,120.334 154.522 C 122.302 151.964,122.954 149.502,122.977 144.542 C 123.003 139.018,122.719 138.367,119.915 137.527 L 118.360 137.061 116.280 139.279 C 112.872 142.912,109.790 143.724,105.199 142.200 C 97.608 139.678,97.318 128.189,104.757 124.665 C 106.551 123.816,106.603 123.739,106.717 121.796 C 106.922 118.309,105.383 117.653,98.400 118.256 M113.345 119.000 C 113.471 119.330,113.837 119.600,114.158 119.600 C 114.479 119.600,115.091 120.044,115.518 120.586 C 115.945 121.129,116.391 121.475,116.510 121.356 C 116.629 121.237,116.853 121.558,117.008 122.070 C 117.163 122.581,117.522 123.540,117.806 124.200 C 118.090 124.860,118.753 126.783,119.279 128.474 L 120.235 131.547 119.018 131.309 C 115.749 130.670,112.200 125.867,111.787 121.522 C 111.534 118.868,112.620 117.111,113.345 119.000 M105.186 119.974 C 106.044 121.577,105.691 122.737,104.098 123.550 C 103.272 123.971,101.750 125.235,100.716 126.358 C 98.543 128.716,97.787 128.963,98.140 127.200 C 98.320 126.301,98.232 126.000,97.790 126.000 C 97.465 126.000,97.219 125.865,97.243 125.700 C 97.325 125.136,96.707 123.600,96.399 123.600 C 95.856 123.600,94.700 120.740,95.087 120.353 C 96.231 119.209,104.608 118.894,105.186 119.974 M153.851 121.454 C 151.791 122.570,148.311 123.600,146.599 123.600 C 144.754 123.600,143.975 124.218,143.308 126.211 C 141.616 131.274,135.656 136.656,130.497 137.781 C 128.650 138.183,128.471 138.783,128.454 144.609 C 128.445 147.989,128.223 150.609,127.820 152.120 C 126.956 155.351,127.223 156.445,128.351 154.300 C 128.618 153.792,128.734 153.714,128.617 154.121 C 128.487 154.571,128.571 154.742,128.839 154.576 C 129.076 154.429,129.181 153.970,129.072 153.554 C 128.964 153.139,129.011 152.883,129.177 152.986 C 129.343 153.089,129.731 152.684,130.039 152.086 C 130.347 151.489,130.710 150.910,130.845 150.800 C 130.981 150.690,131.230 150.158,131.399 149.619 C 131.688 148.694,131.666 148.677,131.024 149.319 C 129.839 150.504,129.690 150.109,129.516 145.300 C 129.318 139.860,129.555 138.800,130.971 138.800 C 131.516 138.800,132.376 138.639,132.881 138.442 C 133.387 138.245,134.610 137.852,135.600 137.570 C 136.590 137.287,137.625 136.886,137.900 136.679 C 138.249 136.416,138.400 136.497,138.400 136.951 C 138.400 138.149,139.216 137.619,142.517 134.276 C 147.183 129.552,147.923 128.701,147.091 129.021 C 146.530 129.236,146.400 129.057,146.400 128.066 C 146.400 127.396,146.217 126.734,145.993 126.596 C 145.770 126.458,145.693 126.132,145.823 125.872 C 145.953 125.613,145.797 125.720,145.477 126.112 C 144.992 126.705,144.857 126.726,144.671 126.241 C 144.401 125.537,145.328 124.696,146.526 124.558 C 149.780 124.184,155.001 122.297,155.358 121.366 C 155.632 120.652,155.296 120.672,153.851 121.454 M106.200 127.286 C 101.381 130.069,102.398 136.827,107.920 138.720 C 111.607 139.984,115.949 136.139,113.366 133.897 C 112.797 133.404,111.522 131.783,110.533 130.296 C 108.323 126.975,107.604 126.476,106.200 127.286 M107.829 128.706 C 108.065 128.868,108.379 129.270,108.527 129.600 C 108.981 130.615,109.736 131.717,111.329 133.689 C 113.038 135.803,113.015 136.017,110.978 136.983 C 109.427 137.719,108.185 137.538,108.534 136.627 C 108.663 136.292,108.313 135.782,107.676 135.378 C 104.383 133.291,103.719 131.689,105.275 129.584 C 106.136 128.419,106.984 128.128,107.829 128.706 M157.200 153.000 C 157.200 153.330,157.009 153.600,156.776 153.600 C 156.543 153.600,156.455 153.765,156.580 153.968 C 156.705 154.170,156.524 154.619,156.178 154.965 C 155.832 155.311,155.652 155.760,155.777 155.963 C 155.902 156.166,155.779 156.423,155.502 156.534 C 155.199 156.656,155.278 156.749,155.700 156.768 C 156.085 156.786,156.400 157.043,156.400 157.340 C 156.400 158.154,159.478 163.832,160.661 165.200 C 162.717 167.579,163.600 168.767,163.600 169.153 C 163.600 169.399,163.780 169.600,164.000 169.600 C 164.220 169.600,164.400 169.751,164.400 169.936 C 164.400 170.121,165.285 171.745,166.367 173.545 C 168.497 177.088,168.648 177.817,168.989 186.200 C 169.258 192.815,171.565 200.800,173.208 200.800 C 173.424 200.800,173.602 201.025,173.604 201.300 C 173.612 202.510,181.149 211.389,182.700 212.016 C 183.195 212.216,183.600 212.655,183.600 212.990 C 183.600 213.326,183.841 213.600,184.136 213.600 C 184.430 213.600,185.231 214.185,185.915 214.900 C 186.599 215.615,187.663 216.591,188.279 217.068 C 188.896 217.546,189.940 218.364,190.600 218.885 C 192.247 220.187,193.820 221.168,196.336 222.463 C 197.511 223.068,198.718 223.766,199.018 224.015 C 202.491 226.898,215.239 229.394,217.386 227.612 C 217.751 227.309,219.583 227.139,222.478 227.140 L 227.000 227.141 231.650 229.134 C 234.207 230.230,236.997 231.559,237.850 232.086 C 238.702 232.614,240.256 233.366,241.303 233.757 C 242.349 234.148,243.120 234.606,243.016 234.774 C 242.912 234.942,243.350 235.094,243.989 235.112 C 244.627 235.130,245.526 235.346,245.985 235.592 C 247.217 236.251,251.637 233.104,250.740 232.207 C 250.613 232.080,249.512 231.813,248.293 231.615 C 247.074 231.417,245.744 231.077,245.338 230.861 C 244.932 230.644,243.880 230.160,243.000 229.784 C 240.345 228.650,235.051 226.001,234.818 225.691 C 232.520 222.625,223.108 219.986,219.714 221.455 C 215.335 223.352,213.595 223.689,209.876 223.365 C 206.577 223.077,205.773 222.833,201.360 220.777 C 198.541 219.464,192.800 215.752,192.800 215.242 C 192.800 215.052,192.256 214.672,191.591 214.396 C 190.925 214.121,190.250 213.681,190.091 213.419 C 189.931 213.157,188.488 211.747,186.885 210.286 C 184.156 207.800,180.350 203.715,177.960 200.709 C 174.782 196.712,172.947 187.388,174.575 183.513 C 175.408 181.531,175.407 178.565,174.575 178.246 C 174.231 178.114,174.060 177.826,174.195 177.607 C 174.576 176.991,173.043 173.874,171.512 172.151 C 167.808 167.984,163.709 162.049,160.949 156.858 C 159.582 154.286,158.683 153.018,158.253 153.055 C 157.899 153.085,157.707 152.950,157.828 152.755 C 157.949 152.560,157.857 152.400,157.624 152.400 C 157.391 152.400,157.200 152.670,157.200 153.000 M121.792 164.287 C 118.356 167.345,113.781 169.195,109.627 169.206 C 106.983 169.213,105.645 169.795,107.311 170.213 L 108.380 170.482 107.258 171.604 C 106.641 172.221,105.839 173.327,105.477 174.063 C 105.109 174.811,104.814 175.102,104.809 174.724 C 104.804 174.352,104.616 173.934,104.391 173.795 C 104.148 173.644,103.996 173.998,104.016 174.671 C 104.034 175.292,103.846 177.870,103.599 180.400 C 103.341 183.034,103.232 188.419,103.345 193.000 C 103.453 197.400,103.546 201.839,103.552 202.865 C 103.559 203.891,103.739 204.839,103.954 204.972 C 104.169 205.104,104.262 205.669,104.161 206.226 C 103.932 207.487,104.358 208.309,104.844 207.543 C 105.095 207.146,105.189 207.243,105.194 207.900 C 105.197 208.395,105.359 208.800,105.554 208.800 C 105.749 208.800,106.036 209.835,106.192 211.100 C 106.349 212.365,106.620 213.580,106.795 213.800 C 106.970 214.020,107.332 215.280,107.600 216.600 C 107.868 217.920,108.228 219.180,108.402 219.400 C 108.575 219.620,108.906 220.430,109.137 221.200 C 109.368 221.970,110.035 223.860,110.620 225.400 C 111.206 226.940,111.776 228.693,111.887 229.296 C 111.998 229.899,112.232 230.304,112.405 230.197 C 112.579 230.090,112.930 230.873,113.185 231.938 C 113.441 233.003,113.919 234.394,114.249 235.029 C 114.584 235.675,114.680 236.240,114.466 236.311 C 113.930 236.490,114.373 238.047,115.231 239.000 C 115.627 239.440,115.942 239.890,115.930 240.000 C 115.918 240.110,116.135 240.957,116.412 241.882 C 116.968 243.740,116.489 246.052,113.939 253.800 C 113.722 254.460,113.481 255.270,113.403 255.600 C 113.325 255.930,113.234 256.200,113.200 256.200 C 113.074 256.200,112.314 259.610,112.287 260.300 C 112.276 260.575,112.129 260.800,111.962 260.800 C 111.794 260.800,111.453 261.835,111.205 263.100 C 110.956 264.365,110.644 265.670,110.511 266.000 C 110.378 266.330,110.238 266.690,110.200 266.800 C 110.162 266.910,110.033 267.270,109.913 267.600 C 108.599 271.226,108.282 272.776,108.742 273.330 C 109.011 273.654,109.309 274.325,109.404 274.822 C 109.897 277.380,117.446 283.871,121.800 285.481 C 122.460 285.725,123.360 286.064,123.800 286.234 C 124.240 286.404,125.320 286.585,126.200 286.637 C 127.080 286.688,128.250 286.806,128.800 286.899 C 129.856 287.078,130.312 286.988,135.400 285.603 C 137.160 285.123,139.500 284.492,140.600 284.200 C 141.700 283.908,144.040 283.282,145.800 282.809 C 151.163 281.368,154.530 280.769,155.795 281.032 C 156.458 281.170,157.405 281.309,157.900 281.341 C 158.395 281.374,158.800 281.614,158.800 281.876 C 158.800 282.138,158.978 282.463,159.195 282.597 C 159.422 282.737,159.489 282.577,159.353 282.221 C 159.019 281.352,160.088 281.424,162.000 282.400 C 162.862 282.840,164.105 283.200,164.760 283.200 C 165.416 283.200,166.051 283.360,166.172 283.555 C 166.293 283.750,167.058 284.034,167.873 284.187 C 168.688 284.340,169.995 284.793,170.778 285.194 C 171.560 285.595,173.190 286.244,174.400 286.637 C 175.610 287.030,177.037 287.578,177.571 287.855 C 178.106 288.132,178.692 288.267,178.874 288.154 C 179.196 287.955,181.801 288.706,182.600 289.229 C 182.820 289.373,185.160 289.882,187.800 290.361 C 190.440 290.839,193.368 291.404,194.306 291.615 C 195.244 291.827,196.903 292.000,197.993 292.000 C 199.512 292.000,199.925 292.129,199.764 292.551 C 199.468 293.321,218.542 293.098,219.814 292.317 C 220.026 292.186,221.453 291.959,222.984 291.811 C 224.515 291.664,225.955 291.426,226.184 291.283 C 226.685 290.969,226.728 290.959,230.000 290.399 C 231.430 290.154,232.771 289.784,232.980 289.577 C 233.189 289.370,233.676 289.200,234.062 289.200 C 234.800 289.200,241.630 287.080,243.000 286.425 C 243.440 286.215,244.790 285.643,246.000 285.154 C 247.210 284.666,248.515 283.998,248.900 283.671 C 249.285 283.344,249.600 283.192,249.600 283.333 C 249.600 283.776,256.754 279.961,257.912 278.900 C 258.212 278.625,258.651 278.400,258.887 278.400 C 259.456 278.400,263.310 275.832,264.014 274.983 C 264.318 274.617,264.980 274.160,265.484 273.968 C 265.988 273.777,266.400 273.345,266.400 273.010 C 266.400 272.674,266.535 272.421,266.700 272.447 C 267.366 272.552,268.000 272.383,268.000 272.100 C 268.000 271.033,264.174 272.134,262.560 273.664 C 261.878 274.311,261.158 274.810,260.960 274.773 C 260.006 274.594,259.296 274.901,258.122 276.002 C 257.419 276.661,256.429 277.206,255.922 277.214 C 255.415 277.222,254.550 277.486,254.000 277.800 C 253.450 278.114,252.325 278.378,251.500 278.386 C 250.675 278.394,250.000 278.575,250.000 278.790 C 250.000 279.313,248.240 280.159,245.800 280.807 C 244.700 281.100,243.668 281.557,243.506 281.823 C 243.344 282.089,242.373 282.433,241.347 282.587 C 240.322 282.741,239.194 283.008,238.841 283.181 C 238.010 283.588,233.162 284.796,230.600 285.234 C 229.500 285.423,227.970 285.846,227.200 286.174 C 225.155 287.047,218.435 287.725,210.000 287.908 C 200.534 288.114,196.512 287.689,186.800 285.460 C 178.999 283.669,176.827 283.007,166.400 279.248 C 158.187 276.287,154.339 275.901,148.285 277.434 C 145.818 278.058,143.710 278.674,143.600 278.801 C 141.314 281.456,127.042 282.919,124.000 280.810 C 123.450 280.429,122.527 280.003,121.949 279.863 C 117.513 278.792,112.925 271.261,113.314 265.689 C 113.602 261.582,113.718 261.164,115.642 257.316 C 116.589 255.422,117.210 253.680,117.094 253.239 C 116.959 252.723,117.132 252.406,117.617 252.280 C 118.067 252.162,118.520 251.430,118.814 250.345 C 119.075 249.385,119.459 248.232,119.668 247.781 C 121.067 244.768,119.958 236.650,117.212 229.800 C 114.153 222.168,113.335 219.836,112.093 215.211 C 110.005 207.432,109.634 205.919,109.392 204.200 C 109.268 203.320,108.914 200.980,108.604 199.000 C 108.295 197.020,107.846 194.140,107.608 192.600 C 106.731 186.940,106.882 178.825,107.900 176.888 C 108.395 175.946,108.800 175.022,108.800 174.835 C 108.800 174.105,112.263 171.082,113.985 170.310 C 118.212 168.414,119.424 167.806,120.871 166.859 C 121.712 166.308,122.400 165.689,122.400 165.482 C 122.400 165.276,122.732 165.193,123.137 165.300 C 124.151 165.565,124.776 164.442,124.217 163.357 C 123.797 162.541,123.719 162.571,121.792 164.287 M105.290 213.022 C 105.241 213.614,105.372 213.941,105.603 213.798 C 106.071 213.509,106.142 212.000,105.687 212.000 C 105.515 212.000,105.336 212.460,105.290 213.022 M105.614 214.900 C 105.622 215.175,105.904 215.850,106.242 216.400 C 106.579 216.950,106.753 217.070,106.628 216.667 C 106.502 216.264,106.400 215.589,106.400 215.167 C 106.400 214.745,106.220 214.400,106.000 214.400 C 105.780 214.400,105.606 214.625,105.614 214.900 M110.517 229.585 C 110.763 230.236,111.026 230.708,111.101 230.632 C 111.351 230.383,110.720 228.400,110.391 228.400 C 110.214 228.400,110.271 228.933,110.517 229.585 " stroke="none" fill="#e1b8ca" fill-rule="evenodd"></path></g></svg>